<?xml version="1.0" encoding="utf-8"?>
<!-- Generator: Adobe Illustrator 27.5.0, SVG Export Plug-In . SVG Version: 6.00 Build 0)  -->
<svg version="1.1" id="Layer_1" xmlns="http://www.w3.org/2000/svg" xmlns:xlink="http://www.w3.org/1999/xlink" x="0px" y="0px"
	 viewBox="0 0 600 400" style="enable-background:new 0 0 600 400;" xml:space="preserve">
<rect style="opacity:0;fill:#FFFFFF;" width="600" height="400"/>
<path style="fill:#EFE8E6;" d="M492.434,350.124H80.866c-8.461,0-15.319-6.859-15.319-15.32V133.762
	c0-8.461,6.859-15.319,15.319-15.319h411.568c8.461,0,15.319,6.859,15.319,15.319v201.042
	C507.753,343.265,500.894,350.124,492.434,350.124z"/>
<g>
	<path style="fill:#7797B7;" d="M547.143,235.319c-14.161,0-25.626,12.931-25.626,28.881v35.365c0,7.975-2.869,15.192-7.503,20.421
		c-4.646,5.23-11.056,8.459-18.136,8.459c-14.148,0-25.626-12.931-25.626-28.881v-64.655L547.143,235.319z"/>
	<path style="fill:#9CB9DB;" d="M195.772,328.443h300.871c0,0-0.192-0.004-0.544-0.025c-14.096-0.82-25.086-12.535-25.086-26.655
		V158.18H170.142v152.68c0,5.025,2.462,9.762,6.644,12.547C180.582,325.934,186.517,328.108,195.772,328.443z"/>
	<path style="fill:#261718;" d="M322.803,328.811H195.772c-8.268-0.299-14.816-2.079-19.475-5.292
		c-4.084-2.816-6.523-7.518-6.523-12.58V158.18c0-0.203,0.165-0.368,0.368-0.368c0.203,0,0.368,0.165,0.368,0.368v152.76
		c0,4.819,2.319,9.296,6.204,11.974c4.543,3.131,10.959,4.868,19.071,5.162l127.018,0c0.203,0,0.368,0.165,0.368,0.368
		C323.171,328.647,323.007,328.811,322.803,328.811z"/>
	<path style="fill:#261718;" d="M471.012,158.549H199.643c-0.203,0-0.368-0.165-0.368-0.368c0-0.203,0.165-0.368,0.368-0.368
		h271.369c0.203,0,0.368,0.165,0.368,0.368C471.38,158.384,471.216,158.549,471.012,158.549z"/>
	<path style="fill:#261718;" d="M495.878,328.813h-95.854c-0.204,0-0.368-0.165-0.368-0.368c0-0.204,0.165-0.368,0.368-0.368h95.854
		c6.742,0,13.086-2.96,17.861-8.335c4.778-5.393,7.41-12.559,7.41-20.177V264.2c0-16.128,11.661-29.249,25.994-29.249
		c0.203,0,0.368,0.165,0.368,0.368c0,0.204-0.165,0.368-0.368,0.368c-13.927,0-25.258,12.791-25.258,28.513v35.365
		c0,7.798-2.697,15.138-7.595,20.666C509.373,325.765,502.834,328.813,495.878,328.813z"/>
	<rect x="187.418" y="276.003" style="fill:#8BAED1;" width="266.172" height="23.282"/>
</g>
<g>
	<path style="fill:#261718;" d="M393.1,135.3c0.108,0.85,0.885,1.451,1.735,1.343c0.85-0.108,1.451-0.885,1.343-1.735
		c-0.108-0.85-0.885-1.451-1.735-1.343C393.593,133.673,392.992,134.45,393.1,135.3z"/>
	<path style="fill:#9CB9DB;" d="M393.518,135.051l1.056-0.453l-17.577-40.993l-1.056,0.453c-2.277,0.976-3.331,3.613-2.355,5.889
		l14.042,32.749C388.605,134.973,391.242,136.027,393.518,135.051z"/>
	<path style="fill:#261718;" d="M387.26,132.021c-0.071,0-0.139-0.042-0.169-0.111l-13.305-31.03
		c-1.218-2.84,0.102-6.142,2.942-7.36c0.093-0.04,0.201,0.003,0.242,0.097c0.04,0.093-0.003,0.202-0.097,0.242
		c-2.654,1.138-3.887,4.222-2.749,6.876l13.305,31.03c0.04,0.093-0.003,0.202-0.097,0.242
		C387.309,132.016,387.285,132.021,387.26,132.021z"/>
	<path style="fill:#9CB9DB;" d="M435.699,132.639l-0.123-0.964c-0.093-0.728-0.759-1.243-1.487-1.151l-41.673,5.313
		c-0.692,0.088-1.181,0.72-1.093,1.412l0.123,0.965c0.237,1.862,1.94,3.18,3.802,2.942l37.566-4.789
		C434.641,136.133,435.932,134.464,435.699,132.639z"/>
	<path style="fill:#261718;" d="M391.356,137.693c-0.091,0-0.17-0.068-0.182-0.161c-0.057-0.453,0.064-0.901,0.344-1.263
		c0.279-0.361,0.683-0.592,1.136-0.65l41.137-5.244c0.098-0.012,0.193,0.058,0.206,0.159c0.013,0.101-0.059,0.193-0.159,0.206
		l-41.137,5.244c-0.356,0.045-0.672,0.226-0.891,0.51c-0.219,0.283-0.315,0.635-0.27,0.991c0.013,0.101-0.059,0.193-0.159,0.206
		C391.372,137.693,391.364,137.693,391.356,137.693z"/>
</g>
<g>
	<path style="fill:#D22E37;" d="M316.696,113.354h14.782c7.276,0,13.23,5.953,13.23,13.23v0c0,7.276-5.953,13.23-13.23,13.23
		h-12.397l-7.985,5.171v-6.425c-4.497-2.119-7.63-6.698-7.63-11.976v0C303.466,119.308,309.419,113.354,316.696,113.354z"/>
	<g>
		<path style="fill:#FFFFFF;" d="M326.01,122.356c0-0.965-0.747-1.303-1.784-1.303c-1.224,0-1.982,0.483-2.187,1.288
			c-0.074,0.292-0.372,0.472-0.673,0.472h-2.09c-0.425,0-0.788-0.372-0.726-0.792c0.395-2.684,2.486-4.394,5.723-4.394
			c3.499,0,5.357,1.906,5.357,4.44c0,3.689-3.936,3.895-4.031,7.866c-0.01,0.406-0.31,0.747-0.717,0.747h-2.36
			c-0.394,0-0.737-0.324-0.732-0.718C321.857,125.424,326.01,124.721,326.01,122.356z M321.354,133.671
			c0-1.302,1.063-2.365,2.365-2.365c1.303,0,2.363,1.063,2.363,2.365c0,1.303-1.061,2.363-2.363,2.363
			C322.417,136.035,321.354,134.974,321.354,133.671z"/>
	</g>
</g>
<g>
	<path style="fill:#D22E37;" d="M87.302,150.997H72.897c-7.091,0-12.892,5.801-12.892,12.892v0c0,7.091,5.801,12.892,12.892,12.892
		h12.081l7.782,5.039v-6.261c4.382-2.065,7.435-6.527,7.435-11.67v0C100.195,156.798,94.393,150.997,87.302,150.997z"/>
	<path style="fill:#FFFFFF;" d="M87.27,158.467c-0.089,0-0.173,0.025-0.259,0.043c-0.297-1.849-0.872-3.085-1.852-2.576
		c-2.837,1.473-8.674,2.4-10.337,2.728c-1.664,0.327-1.609,1.664-1.609,1.664c-0.025,0.289-0.036,0.547-0.05,0.809
		c-0.557,0.174-0.975,0.893-0.975,1.755c0,0.98,0.54,1.774,1.21,1.793c0.555,2.121,1.778,1.916,1.778,1.916
		c0.074-0.01,0.146-0.014,0.22-0.023v5.576c0,0.629,0.51,1.14,1.14,1.14h0.937c0.625,0,1.132-0.507,1.132-1.132v-5.674
		c4.082,0.255,7.186,1.758,7.919,1.478c0.256-0.098,0.481-1.169,0.616-2.635c0.044,0.004,0.086,0.021,0.131,0.021
		c1.158,0,2.098-1.54,2.098-3.441C89.368,160.007,88.429,158.467,87.27,158.467z"/>
</g>
<g>
	<path style="fill:#D22E37;" d="M127.64,64.547h19.453c9.576,0,17.41,7.835,17.41,17.41v0c0,9.576-7.835,17.41-17.41,17.41h-16.314
		l-10.508,6.805v-8.455c-5.918-2.788-10.041-8.815-10.041-15.76v0C110.23,72.382,118.065,64.547,127.64,64.547z"/>
	<path style="fill:#FFFFFF;" d="M128.023,74.867l2.004-2.002c0.618-0.618,1.619-0.617,2.237,0.001l5.105,5.108l5.108-5.105
		c0.618-0.618,1.619-0.617,2.237,0.001l2.002,2.003c0.618,0.618,0.617,1.619-0.001,2.237l-5.108,5.105l5.105,5.108
		c0.617,0.618,0.617,1.619-0.001,2.237l-2.003,2.002c-0.618,0.618-1.62,0.617-2.237-0.001l-5.105-5.108l-5.108,5.105
		c-0.618,0.618-1.619,0.617-2.237-0.001l-2.002-2.003c-0.618-0.618-0.617-1.619,0.001-2.237l5.108-5.105l-5.105-5.108
		C127.404,76.486,127.405,75.485,128.023,74.867z"/>
</g>
<g>
	<path style="fill:#D22E37;" d="M487.352,55.222h10.986c5.408,0,9.832,4.424,9.832,9.832v0c0,5.408-4.424,9.832-9.832,9.832h-9.213
		l-5.934,3.843v-4.775c-3.342-1.575-5.67-4.978-5.67-8.9v0C477.52,59.647,481.945,55.222,487.352,55.222z"/>
	<path style="fill:#FFFFFF;" d="M492.466,57.733c-3.812,0-6.914,3.101-6.914,6.914s3.102,6.914,6.914,6.914
		c3.812,0,6.914-3.102,6.914-6.914S496.278,57.733,492.466,57.733z M497.355,64.646c0,0.973-0.293,1.875-0.785,2.638l-7.25-6.349
		c0.853-0.724,1.942-1.178,3.146-1.178C495.162,59.757,497.355,61.951,497.355,64.646z M487.577,64.646
		c0-0.759,0.189-1.469,0.498-2.11l7.07,6.192c-0.771,0.508-1.689,0.808-2.679,0.808C489.77,69.536,487.577,67.342,487.577,64.646z"
		/>
</g>
<g>
	<g>
		<path style="fill:#FFFFFF;" d="M193.37,190.558h12.142l26.627,41.198v-41.198h13.01v65.223H233.18l-26.714-41.285v41.285H193.37
			V190.558z"/>
		<path style="fill:#FFFFFF;" d="M256.165,190.558h45.448v12.923h-32.438v12.316h29.576v12.923h-29.576v14.051h33.219v13.01h-46.228
			V190.558z"/>
		<path style="fill:#FFFFFF;" d="M306.99,190.558h13.443l9.454,37.729l10.581-37.729h12.663l10.755,37.555l9.28-37.555h13.357
			l-17.347,65.223h-10.234l-11.969-42.759l-12.316,42.759h-10.321L306.99,190.558z"/>
		<path style="fill:#FFFFFF;" d="M391.555,237.22l12.75-2.949c1.648,7.199,5.898,10.408,13.443,10.408
			c7.112,0,12.143-2.949,12.143-6.938c0-3.73-4.424-6.592-14.398-9.628c-15.699-4.597-23.158-11.362-23.158-21.25
			c0-11.015,9.28-17.867,24.285-17.867c13.79,0,21.77,5.811,24.979,17.607l-13.617,2.949c-1.735-5.291-5.378-7.633-12.056-7.633
			c-6.158,0-10.148,1.908-10.148,5.378c0,3.122,3.209,5.204,13.964,8.586c15.872,5.03,23.418,12.142,23.418,22.204
			c0,11.622-9.887,19.341-24.979,19.341C403.263,257.429,393.81,250.317,391.555,237.22z"/>
	</g>
</g>
<g>
	<path style="fill:#8E4832;" d="M296.963,240.461c1.648,5.967,3.574,13.109,1.565,13.664s-7.697-0.851-9.345-6.818
		c-1.648-5.967-1.355-11.254,0.654-11.809S295.315,234.494,296.963,240.461z"/>
	<path style="fill:#FFFFFF;" d="M269.457,232.598c0,0-14.15,7.816-17.869,7.251c-3.719-0.566,18.177-25.211,20.144-24.369
		S269.457,232.598,269.457,232.598z"/>
	<polygon style="fill:#F7B7A1;" points="252.06,311.384 251.606,341.372 265.088,344.083 267.592,311.384 	"/>
	<g>
		<path style="fill:#FFFFFF;" d="M251.339,339.408l13.898,3.927c0,0,1.716,7.714,0.357,12.695c0,0-16.017-1.28-25.599,1.329
			c-2.296,0.625-4.7,0.766-7.04,0.338c-1.878-0.343-3.605-0.928-3.548-1.914c0.123-2.141,1.894-6.011,8.193-4.034
			c0,0,8.957-7.857,13.746-10.995L251.339,339.408z"/>
		<polygon style="fill:#EFE8E6;" points="250.975,355.742 228.144,355.742 228.144,360.875 250.716,360.875 257.151,359.27 
			257.881,360.875 266.775,360.875 267.922,356.894 266.775,351.736 		"/>
		<path style="fill:#261718;" d="M229.407,355.967c-0.004,0-0.007,0-0.011,0c-0.102-0.006-0.179-0.093-0.173-0.194
			c0.07-1.223,0.656-2.882,2.088-3.871c1.513-1.045,3.613-1.166,6.245-0.36c0.88-0.768,8.959-7.795,13.502-10.819
			c0.084-0.057,0.199-0.033,0.255,0.051c0.056,0.085,0.033,0.199-0.051,0.255c-4.765,3.171-13.453,10.781-13.541,10.857
			l-0.078,0.068l-0.099-0.031c-2.564-0.805-4.591-0.71-6.024,0.28c-1.323,0.914-1.864,2.453-1.93,3.589
			C229.585,355.892,229.504,355.967,229.407,355.967z"/>
		<path style="fill:#261718;" d="M254.402,343.905c-0.035,0-0.07-0.01-0.101-0.031l-3.945-2.603
			c-0.085-0.056-0.108-0.17-0.052-0.255c0.056-0.085,0.17-0.109,0.255-0.052l3.945,2.603c0.085,0.056,0.108,0.17,0.052,0.255
			C254.52,343.876,254.462,343.905,254.402,343.905z"/>
		<path style="fill:#261718;" d="M252.688,345.206c-0.035,0-0.07-0.01-0.101-0.03l-3.945-2.603c-0.085-0.056-0.108-0.17-0.052-0.255
			c0.056-0.085,0.17-0.109,0.255-0.052l3.945,2.603c0.085,0.056,0.108,0.17,0.052,0.255
			C252.807,345.177,252.748,345.206,252.688,345.206z"/>
		<path style="fill:#261718;" d="M250.975,346.508c-0.035,0-0.07-0.01-0.101-0.031l-3.945-2.603
			c-0.085-0.056-0.108-0.17-0.052-0.255c0.056-0.085,0.17-0.109,0.255-0.052l3.945,2.603c0.085,0.056,0.108,0.17,0.052,0.255
			C251.094,346.479,251.035,346.508,250.975,346.508z"/>
		<path style="fill:#261718;" d="M249.262,347.809c-0.035,0-0.07-0.01-0.101-0.031l-3.945-2.603
			c-0.085-0.056-0.108-0.17-0.052-0.255c0.056-0.085,0.17-0.109,0.255-0.052l3.945,2.603c0.085,0.056,0.108,0.17,0.052,0.255
			C249.38,347.78,249.322,347.809,249.262,347.809z"/>
		<path style="fill:#261718;" d="M247.548,349.111c-0.035,0-0.07-0.01-0.101-0.03l-3.945-2.603c-0.085-0.056-0.108-0.17-0.052-0.255
			c0.056-0.085,0.17-0.109,0.255-0.052l3.945,2.603c0.085,0.056,0.108,0.17,0.052,0.255
			C247.667,349.082,247.608,349.111,247.548,349.111z"/>
		<path style="fill:#261718;" d="M228.144,361.059c-0.102,0-0.184-0.082-0.184-0.184v-5.316h16.706c0.102,0,0.184,0.082,0.184,0.184
			c0,0.102-0.082,0.184-0.184,0.184h-16.337v4.948C228.328,360.977,228.246,361.059,228.144,361.059z"/>
		<path style="fill:#261718;" d="M258.481,343.843c-2.546,0-6.115-1.309-6.314-1.382l-0.368-0.136l0.34-0.196
			c0.219-0.127,5.401-3.084,7.76-1.975c0.603,0.284,0.974,0.804,1.101,1.545c0.121,0.707-0.042,1.252-0.484,1.619
			C260.057,343.699,259.325,343.843,258.481,343.843z M252.681,342.251c1.396,0.476,6.165,1.975,7.6,0.784
			c0.338-0.281,0.455-0.697,0.356-1.273c-0.107-0.625-0.4-1.042-0.895-1.274C257.892,339.619,253.897,341.602,252.681,342.251z"/>
		<path style="fill:#261718;" d="M257.126,345.972c-2.192,0-5.512-3.805-5.66-3.976l-0.212-0.245l0.319-0.057
			c0.216-0.039,5.318-0.926,6.867,0.809c0.458,0.513,0.565,1.194,0.318,2.025c-0.239,0.803-0.67,1.276-1.28,1.408
			C257.365,345.96,257.247,345.972,257.126,345.972z M251.97,342.005c0.83,0.904,3.756,3.932,5.431,3.571
			c0.475-0.103,0.804-0.48,1.004-1.153c0.211-0.71,0.133-1.258-0.239-1.675C256.964,341.402,253.125,341.838,251.97,342.005z"/>
	</g>
	<polygon style="fill:#F7B7A1;" points="281.274,313.653 280.447,344.576 294.09,347.499 296.785,313.133 	"/>
	<path style="fill:#DE966E;" d="M251.523,288.648c2.969-13.475,16.266-46.543,16.266-46.543s22.621,1.702,23.286,2.102
		c0.11,0.066,0.184,0.289,0.23,0.61c0,0,6.126,5.967,7.26,16.586c1.046,9.794,6.078,61.327,0.368,65
		c-8.468,5.448-37.081-1.248-46.793-8.39C247.386,314.515,248.845,300.798,251.523,288.648z"/>
	<g>
		<path style="fill:#FFFFFF;" d="M280.432,342.866l13.898,3.927c0,0,1.716,7.714,0.357,12.695c0,0-16.017-1.28-25.599,1.329
			c-2.296,0.625-4.7,0.766-7.04,0.338c-1.878-0.343-3.605-0.928-3.548-1.914c0.124-2.141,1.894-6.011,8.193-4.035
			c0,0,8.957-7.857,13.746-10.995L280.432,342.866z"/>
		<polygon style="fill:#EFE8E6;" points="280.068,359.2 257.237,359.2 257.237,364.332 279.809,364.332 286.244,362.727 
			286.973,364.332 295.867,364.332 297.015,360.352 295.867,355.194 		"/>
		<path style="fill:#261718;" d="M258.499,359.425c-0.004,0-0.007,0-0.011,0c-0.102-0.006-0.179-0.093-0.173-0.194
			c0.071-1.223,0.656-2.882,2.088-3.871c1.513-1.045,3.613-1.165,6.245-0.359c0.88-0.768,8.958-7.796,13.502-10.819
			c0.084-0.056,0.199-0.034,0.255,0.051c0.057,0.085,0.034,0.199-0.051,0.255c-4.765,3.171-13.453,10.781-13.541,10.858
			l-0.078,0.068l-0.099-0.031c-2.564-0.805-4.59-0.71-6.024,0.28c-1.323,0.914-1.864,2.453-1.93,3.589
			C258.677,359.349,258.596,359.425,258.499,359.425z"/>
		<path style="fill:#261718;" d="M283.495,347.363c-0.035,0-0.07-0.01-0.101-0.03l-3.945-2.603c-0.085-0.056-0.108-0.17-0.052-0.255
			c0.056-0.085,0.17-0.109,0.255-0.052l3.945,2.603c0.085,0.056,0.108,0.17,0.052,0.255
			C283.613,347.334,283.554,347.363,283.495,347.363z"/>
		<path style="fill:#261718;" d="M281.781,348.664c-0.035,0-0.07-0.01-0.101-0.031l-3.945-2.603
			c-0.085-0.056-0.108-0.17-0.052-0.255c0.056-0.085,0.17-0.109,0.255-0.052l3.945,2.603c0.085,0.056,0.108,0.17,0.052,0.255
			C281.9,348.635,281.841,348.664,281.781,348.664z"/>
		<path style="fill:#261718;" d="M280.068,349.966c-0.035,0-0.07-0.01-0.101-0.031l-3.944-2.603
			c-0.085-0.056-0.108-0.17-0.052-0.255c0.056-0.085,0.17-0.109,0.255-0.052l3.944,2.603c0.085,0.056,0.108,0.17,0.052,0.255
			C280.186,349.936,280.128,349.966,280.068,349.966z"/>
		<path style="fill:#261718;" d="M278.354,351.267c-0.035,0-0.07-0.01-0.101-0.031l-3.944-2.603
			c-0.085-0.056-0.108-0.17-0.052-0.255s0.17-0.109,0.255-0.052l3.945,2.603c0.085,0.056,0.108,0.17,0.052,0.255
			C278.473,351.238,278.414,351.267,278.354,351.267z"/>
		<path style="fill:#261718;" d="M276.641,352.569c-0.035,0-0.07-0.01-0.101-0.031l-3.944-2.603
			c-0.085-0.056-0.108-0.17-0.052-0.255c0.056-0.085,0.17-0.109,0.255-0.052l3.944,2.603c0.085,0.056,0.108,0.17,0.052,0.255
			C276.759,352.539,276.701,352.569,276.641,352.569z"/>
		<path style="fill:#261718;" d="M257.237,364.516c-0.102,0-0.184-0.082-0.184-0.184v-5.316h16.706c0.102,0,0.184,0.082,0.184,0.184
			c0,0.102-0.082,0.184-0.184,0.184h-16.337v4.948C257.421,364.434,257.339,364.516,257.237,364.516z"/>
		<path style="fill:#261718;" d="M287.573,347.301c-2.546,0-6.115-1.308-6.314-1.382l-0.368-0.136l0.34-0.196
			c0.22-0.126,5.403-3.082,7.76-1.974c0.604,0.283,0.974,0.803,1.101,1.545c0.121,0.707-0.042,1.252-0.484,1.619
			C289.15,347.156,288.418,347.301,287.573,347.301z M281.774,345.709c1.396,0.476,6.165,1.975,7.599,0.783
			c0.338-0.281,0.455-0.697,0.356-1.273c-0.107-0.624-0.4-1.041-0.895-1.274C286.987,343.076,282.99,345.06,281.774,345.709z"/>
		<path style="fill:#261718;" d="M286.219,349.43c-2.193,0-5.512-3.805-5.66-3.976l-0.212-0.245l0.319-0.057
			c0.216-0.038,5.318-0.927,6.867,0.809c0.458,0.513,0.565,1.194,0.317,2.025c-0.239,0.802-0.67,1.276-1.28,1.408
			C286.457,349.418,286.34,349.43,286.219,349.43z M281.062,345.463c0.83,0.905,3.762,3.93,5.431,3.571
			c0.475-0.102,0.804-0.48,1.004-1.153c0.211-0.71,0.133-1.258-0.239-1.675C286.056,344.86,282.217,345.296,281.062,345.463z"/>
	</g>
	<path style="fill:#D22E37;" d="M297.885,221.66c-1.226-4.802-8.337-6.02-12.79-7.205c-4.04-1.075-12.112-3.477-16.269-0.781
		c-1.881,1.22-0.129,21.363-1.794,27.167c-1.796,6.257,24.885,8.08,25.306,3.153C292.787,238.733,298.223,222.982,297.885,221.66z"
		/>
	<path style="fill:#261718;" d="M276.604,232.141c-0.05,0-0.1-0.02-0.137-0.061c-1.837-2.042-2.212-3.312-2.227-3.364
		c-0.028-0.098,0.029-0.199,0.126-0.227c0.099-0.027,0.199,0.029,0.228,0.126c0.004,0.012,0.376,1.251,2.146,3.22
		c0.068,0.076,0.062,0.192-0.014,0.26C276.692,232.125,276.648,232.141,276.604,232.141z"/>
	<g>
		<path style="fill:#8E4832;" d="M287.548,204.89c-0.971,4.345,6.749,11.123-0.293,10.154c-5.11-0.703-18.065-9.72-17.094-14.065
			c0.971-4.345,5.217-8.102,10.251-6.977C285.446,195.129,288.519,200.546,287.548,204.89z"/>
		<path style="fill:#F7B7A1;" d="M285.951,207.694c0,0-0.014,5.299,0.081,7.782c0.109,2.825-8.26,2.805-8.499-0.431
			c-0.127-1.725,0.185-5.161,0.185-5.161L285.951,207.694z"/>
		<path style="fill:#F7B7A1;" d="M274.726,203.705c-0.127,0.342-0.232,0.686-0.32,1.028c-0.845,3.318,0.154,6.518,3.035,7.677
			c0.246,0.102,0.507,0.187,0.782,0.257c3.809,0.952,8.682-1.331,9.695-5.391c1.014-4.063-1.25-8.127-5.061-9.075
			C279.047,197.248,276.706,198.314,274.726,203.705z"/>
		<path style="fill:#261718;" d="M280.019,213.064c-0.63,0-1.25-0.072-1.841-0.22c-0.099-0.025-0.159-0.125-0.134-0.223
			c0.025-0.099,0.125-0.158,0.223-0.134c1.961,0.49,4.262,0.109,6.156-1.019c0.086-0.052,0.2-0.024,0.252,0.064
			c0.052,0.087,0.023,0.2-0.064,0.252C283.204,212.622,281.58,213.064,280.019,213.064z"/>
		<path style="fill:#8E4832;" d="M279.4,202.45c-0.111,0.347,2.679,1.284,2.789,0.937c0.111-0.347-0.865-1.085-1.635-1.343
			C279.784,201.785,279.51,202.104,279.4,202.45z"/>
		<path style="fill:#8E4832;" d="M284.489,206.282c0,0-1.252-0.614-0.12-1.684c1.1-1.04-0.111-2.987-1.642-3.206
			c-2.292-0.328-1.13-4.056-4.278-2.416c-0.486,0.253,0.549-0.885,1.321-1.408c3.554-2.408,6.854-1.537,9.244,0.575
			c5.598,4.947-1.697,16.414-1.697,16.414L284.489,206.282z"/>
		<path style="fill:#FFFFFF;" d="M279.316,204.204c-0.038,0.139,0.04,0.299,0.194,0.443c0.017,0.017,0.038,0.031,0.058,0.049
			c0.158,0.125,0.382,0.236,0.638,0.306c0.012,0.005,0.02,0.008,0.033,0.01c0.043,0.01,0.09,0.018,0.134,0.025
			c0.145,0.03,0.287,0.035,0.419,0.03c0.078-0.003,0.151-0.011,0.217-0.025c0.232-0.046,0.395-0.156,0.432-0.312
			c0.049-0.211-0.133-0.446-0.445-0.621c-0.016-0.01-0.033-0.019-0.05-0.026c-0.09-0.052-0.196-0.097-0.304-0.129
			c-0.003-0.001-0.003-0.001-0.006-0.002c-0.042-0.013-0.085-0.023-0.124-0.032c-0.183-0.045-0.355-0.065-0.514-0.06l-0.004,0.002
			c-0.073-0.002-0.139,0.006-0.204,0.017C279.54,203.921,279.358,204.037,279.316,204.204z"/>
		<path style="fill:#261718;" d="M279.316,204.204c-0.038,0.139,0.04,0.299,0.194,0.443c0.017,0.017,0.038,0.031,0.058,0.049
			c0.158,0.125,0.382,0.236,0.638,0.306c0.175-0.105,0.314-0.265,0.393-0.467c0.075-0.191,0.085-0.397,0.037-0.583
			c-0.042-0.013-0.085-0.023-0.124-0.032c-0.183-0.045-0.355-0.065-0.514-0.06l-0.004,0.002c-0.073-0.002-0.139,0.006-0.204,0.017
			C279.54,203.921,279.358,204.037,279.316,204.204z"/>
		<path style="fill:#8E4832;" d="M278.037,202.114c-0.051,0.361-2.337,0.027-2.286-0.334c0.051-0.361,1.001-0.616,1.633-0.523
			S278.088,201.753,278.037,202.114z"/>
		<path style="fill:#FFFFFF;" d="M275.58,203.286c-0.036,0.136,0.026,0.284,0.16,0.419c0.02,0.018,0.041,0.04,0.064,0.058
			c0.123,0.105,0.28,0.196,0.468,0.263c0.061,0.024,0.127,0.043,0.197,0.06c0.042,0.013,0.087,0.024,0.128,0.03
			c0.172,0.03,0.34,0.036,0.484,0.016c0.062-0.006,0.12-0.016,0.172-0.03c0.2-0.052,0.341-0.157,0.378-0.303
			c0.051-0.2-0.112-0.431-0.397-0.599c-0.018-0.014-0.04-0.026-0.063-0.035c-0.068-0.04-0.144-0.076-0.226-0.105
			c-0.026-0.01-0.052-0.02-0.082-0.029c-0.039-0.012-0.08-0.025-0.123-0.035c-0.173-0.044-0.343-0.061-0.499-0.055
			c-0.057,0.001-0.112,0.006-0.165,0.012C275.816,202.997,275.627,203.114,275.58,203.286z"/>
		<path style="fill:#F7B7A1;" d="M283.821,207.133c-0.302,1.211,0.434,2.438,1.646,2.74c1.211,0.302,2.438-0.434,2.74-1.646
			c0.302-1.211-0.435-2.438-1.646-2.74C285.35,205.185,284.123,205.922,283.821,207.133z"/>
		<path style="fill:#261718;" d="M276.148,206.046c-0.049,0-0.098-0.02-0.134-0.06c-0.217-0.237-0.198-0.425-0.145-0.54
			c0.185-0.399,1.109-0.441,1.629-0.433l0.401-1.608c0.025-0.098,0.125-0.156,0.221-0.133c0.098,0.024,0.157,0.123,0.133,0.221
			l-0.437,1.75c-0.021,0.084-0.091,0.144-0.184,0.138c-0.684-0.025-1.367,0.078-1.432,0.218c-0.003,0.005,0.002,0.051,0.084,0.14
			c0.068,0.074,0.063,0.19-0.012,0.258C276.236,206.03,276.192,206.046,276.148,206.046z"/>
		<path style="fill:#261718;" d="M283.068,205.156c-0.01,0-0.02-0.001-0.03-0.003l-0.869-0.146c-0.099-0.017-0.166-0.111-0.15-0.21
			c0.017-0.1,0.11-0.168,0.211-0.15l0.869,0.146c0.099,0.017,0.167,0.111,0.15,0.21
			C283.234,205.094,283.156,205.157,283.068,205.156z"/>
		<path style="fill:#261718;" d="M283.044,205.962c-0.027,0-0.055-0.006-0.081-0.019l-1.129-0.564
			c-0.09-0.045-0.127-0.155-0.082-0.245c0.045-0.09,0.155-0.127,0.245-0.082l1.129,0.564c0.09,0.045,0.127,0.155,0.082,0.245
			C283.176,205.925,283.111,205.962,283.044,205.962z"/>
		<path style="fill:#DE704B;" d="M282.516,207.102c-0.09,0.515-0.797,0.822-1.579,0.685c-0.782-0.137-1.343-0.666-1.252-1.181
			c0.09-0.515,0.797-0.822,1.579-0.685C282.046,206.058,282.607,206.587,282.516,207.102z"/>
		<path style="fill:#261718;" d="M287.471,207.199c-0.055,0-0.108-0.025-0.144-0.071c-0.881-1.146-1.922-0.38-1.965-0.348
			c-0.08,0.061-0.195,0.045-0.256-0.035c-0.061-0.08-0.046-0.194,0.034-0.256c0.014-0.01,1.372-1.022,2.476,0.416
			c0.062,0.08,0.046,0.195-0.034,0.256C287.549,207.187,287.51,207.199,287.471,207.199z"/>
		<path style="fill:#261718;" d="M275.58,203.286c-0.036,0.136,0.026,0.284,0.16,0.419c0.02,0.018,0.041,0.04,0.064,0.058
			c0.123,0.105,0.28,0.196,0.468,0.263c0.27-0.085,0.499-0.286,0.609-0.57c0.051-0.13,0.073-0.265,0.064-0.395
			c-0.026-0.01-0.052-0.02-0.082-0.029c-0.039-0.012-0.08-0.025-0.123-0.035c-0.173-0.044-0.343-0.061-0.499-0.055
			c-0.057,0.001-0.112,0.006-0.165,0.012C275.816,202.997,275.627,203.114,275.58,203.286z"/>
		<path style="fill:#6D3424;" d="M287.518,205.076c-0.093,0-0.173-0.07-0.183-0.165c-0.365-3.421-3.112-3.519-3.229-3.521
			c-0.101-0.002-0.182-0.086-0.18-0.188c0.002-0.101,0.077-0.181,0.187-0.181c0.032,0.001,3.188,0.099,3.588,3.851
			c0.011,0.101-0.063,0.192-0.164,0.202C287.532,205.076,287.525,205.076,287.518,205.076z"/>
		<path style="fill:#6D3424;" d="M278.364,199.084c-0.039,0-0.079-0.013-0.113-0.039c-0.08-0.062-0.094-0.178-0.032-0.258
			c0.033-0.042,3.354-4.205,8.347-2.381c0.095,0.035,0.144,0.141,0.11,0.236c-0.035,0.096-0.14,0.145-0.236,0.11
			c-4.742-1.732-7.899,2.221-7.931,2.262C278.473,199.06,278.418,199.084,278.364,199.084z"/>
		<path style="fill:#6D3424;" d="M288.88,199.832c-0.036,0-0.073-0.011-0.105-0.033c-3.328-2.303-6.042-0.749-6.156-0.682
			c-0.089,0.052-0.201,0.023-0.252-0.065c-0.052-0.087-0.023-0.2,0.064-0.252c0.03-0.018,3.025-1.746,6.553,0.696
			c0.084,0.058,0.105,0.173,0.047,0.256C288.996,199.804,288.938,199.832,288.88,199.832z"/>
		<path style="fill:#DE704B;" d="M277.01,208.079c-0.012,0-0.025-0.001-0.038-0.004c-0.1-0.018-0.166-0.114-0.148-0.214
			c0.014-0.073,0.069-0.128,0.137-0.145c0.015-0.009,0.034-0.021,0.058-0.036c0.23-0.146,0.843-0.532,1.725-0.402
			c0.101,0.015,0.17,0.109,0.155,0.209c-0.015,0.101-0.109,0.171-0.209,0.155c-0.748-0.11-1.257,0.211-1.474,0.349
			C277.133,208.043,277.077,208.079,277.01,208.079z"/>
		<path style="fill:#F7B7A1;" d="M277.534,215.045c0,0-1.881,4.568-0.9,6.105c0.982,1.537,8.329-3.612,8.962-4.627
			C286.229,215.508,277.534,215.045,277.534,215.045z"/>
	</g>
	<g>
		<g>
			<path style="fill:#F7B7A1;" d="M264.651,232.091c0,0,10.5-5.399,13.903-7.514c0.408-0.254-0.051-0.521-0.327-0.915
				c-1.858-2.656-8.772-11.076-17.374-3.557L264.651,232.091z"/>
			<path style="fill:#F7B7A1;" d="M275.367,225.424c0.561,0.254,1.23,0.251,1.811-0.068l2.825-1.549
				c0.981-0.537,1.34-1.768,0.802-2.749c-0.537-0.98-1.768-1.34-2.749-0.802l-2.825,1.549c-0.981,0.538-1.34,1.768-0.802,2.749
				C274.648,224.953,274.982,225.249,275.367,225.424z"/>
			<path style="fill:#F7B7A1;" d="M272.729,223.217c0.557,0.253,1.223,0.251,1.802-0.063l4.824-2.613
				c0.983-0.533,1.349-1.762,0.816-2.745c-0.533-0.984-1.762-1.349-2.745-0.816l-4.824,2.613c-0.983,0.533-1.349,1.762-0.816,2.745
				C272.005,222.742,272.341,223.041,272.729,223.217z"/>
			<path style="fill:#261718;" d="M278.142,221.383c-0.065,0-0.129-0.035-0.162-0.096c-0.049-0.09-0.015-0.201,0.074-0.25
				l1.214-0.657c0.893-0.484,1.225-1.604,0.742-2.496c-0.483-0.892-1.603-1.225-2.496-0.742c-0.09,0.048-0.201,0.015-0.249-0.074
				c-0.048-0.09-0.015-0.201,0.074-0.25c1.072-0.58,2.415-0.18,2.995,0.89c0.58,1.071,0.18,2.415-0.89,2.995l-1.214,0.657
				C278.202,221.376,278.172,221.383,278.142,221.383z"/>
			<path style="fill:#F7B7A1;" d="M270.207,221.315c0.587,0.266,1.29,0.248,1.884-0.109l6.746-4.066
				c0.958-0.577,1.266-1.822,0.689-2.78c-0.577-0.958-1.822-1.267-2.78-0.689L270,217.737c-0.958,0.577-1.266,1.822-0.689,2.78
				C269.53,220.881,269.846,221.151,270.207,221.315z"/>
			<path style="fill:#F7B7A1;" d="M266.499,220.796c0.618,0.28,1.362,0.243,1.966-0.162l11.551-7.749
				c0.929-0.623,1.177-1.881,0.554-2.81c-0.623-0.929-1.882-1.176-2.81-0.554l-11.551,7.749c-0.929,0.623-1.177,1.881-0.553,2.81
				C265.873,220.404,266.168,220.645,266.499,220.796z"/>
			<path style="fill:#F7B7A1;" d="M264.762,220.524c0.094,0.034,0.191,0.062,0.292,0.082c1.096,0.223,2.165-0.485,2.388-1.581
				c0.714-3.511,5.171-5.773,5.216-5.796c0.463-0.231,0.826-0.634,1.003-1.121c0.11-0.301,1.048-3.045,0.216-6.692
				c-0.248-1.09-1.334-1.773-2.424-1.524c-1.09,0.248-1.773,1.334-1.524,2.424c0.369,1.617,0.229,2.986,0.084,3.756
				c-1.756,1.057-5.664,3.844-6.539,8.145C263.271,219.213,263.836,220.186,264.762,220.524z"/>
			<path style="fill:#261718;" d="M273.708,212.16c-0.021,0-0.042-0.004-0.063-0.011c-0.095-0.035-0.145-0.141-0.11-0.236
				c0.103-0.283,0.982-2.864,0.164-6.455c-0.023-0.099,0.039-0.198,0.138-0.22c0.099-0.024,0.198,0.039,0.22,0.139
				c0.842,3.693-0.07,6.369-0.177,6.662C273.854,212.113,273.783,212.16,273.708,212.16z"/>
			<path style="fill:#261718;" d="M276.272,218.785c-0.064,0-0.126-0.033-0.16-0.093c-0.05-0.088-0.019-0.201,0.069-0.251
				l2.564-1.461c0.417-0.251,0.714-0.654,0.833-1.131c0.118-0.478,0.044-0.972-0.21-1.393c-0.128-0.213-0.323-0.425-0.523-0.575
				l-3.271,1.806c-0.089,0.05-0.201,0.017-0.25-0.072c-0.049-0.089-0.017-0.201,0.072-0.25l3.371-1.861
				c0.059-0.033,0.131-0.031,0.189,0.006c0.279,0.18,0.551,0.462,0.728,0.756c0.305,0.505,0.394,1.099,0.252,1.672
				s-0.499,1.056-1.004,1.361l-2.568,1.463C276.334,218.777,276.303,218.785,276.272,218.785z"/>
			<path style="fill:#261718;" d="M278.855,213.848c-0.059,0-0.117-0.029-0.153-0.082c-0.057-0.085-0.034-0.199,0.05-0.255
				l1.161-0.779c0.408-0.274,0.686-0.691,0.781-1.173c0.095-0.482-0.004-0.973-0.278-1.381c-0.274-0.409-0.69-0.686-1.173-0.781
				c-0.483-0.094-0.973,0.004-1.381,0.278l-6.359,3.852c-0.086,0.053-0.2,0.025-0.253-0.062c-0.053-0.087-0.025-0.2,0.062-0.253
				l6.352-3.847c0.482-0.324,1.071-0.442,1.65-0.328c0.579,0.114,1.079,0.447,1.408,0.937c0.329,0.49,0.447,1.078,0.333,1.657
				c-0.114,0.579-0.447,1.079-0.937,1.408l-1.161,0.779C278.926,213.838,278.891,213.848,278.855,213.848z"/>
		</g>
		<path style="fill:#D22E37;" d="M270.372,229.86l-6.919-13.61c0,0-10.783,5.613-14.725,9.122
			c-2.272,2.022-4.859,7.247-2.374,10.782c3.761,5.349,10.676,2.391,13.743,0.479C262.796,234.95,270.372,229.86,270.372,229.86z"/>
		<path style="fill:#261718;" d="M260.097,236.817c-0.061,0-0.121-0.031-0.156-0.087c-0.054-0.086-0.027-0.2,0.059-0.253
			c2.464-1.536,9.078-5.97,10.129-6.675l-3.031-5.405c-0.05-0.088-0.018-0.201,0.071-0.251c0.089-0.049,0.201-0.018,0.251,0.071
			l3.197,5.701l-0.141,0.095c-0.076,0.051-7.609,5.111-10.281,6.776C260.164,236.808,260.13,236.817,260.097,236.817z"/>
	</g>
	<path style="fill:#261718;" d="M295.086,258.07c-0.066,0-0.129-0.035-0.162-0.097c-4.276-7.955-14.551-12.684-14.654-12.731
		c-0.093-0.042-0.134-0.151-0.092-0.243c0.042-0.092,0.151-0.134,0.244-0.092c0.104,0.047,10.492,4.829,14.826,12.893
		c0.048,0.089,0.014,0.201-0.075,0.249C295.145,258.063,295.115,258.07,295.086,258.07z"/>
	<g>
		<g>
			<path style="fill:#F7B7A1;" d="M254.586,233.428c-0.788-0.281-3.086-0.746-8.681,0.129c-1.03,0.161-2.172,0.367-3.436,0.629
				c-0.357,0.074-0.452,0.093-0.622,0.103c-1.117,0.062-2.072-0.794-2.133-1.91c-0.058-1.051,0.696-1.959,1.716-2.113
				c0.047-0.009,0.122-0.025,0.22-0.045c6.717-1.388,14.34-1.428,17.109-0.443C259.55,230.058,255.639,233.803,254.586,233.428z
				 M241.623,230.244c-0.027,0.001-0.086,0.003-0.175,0.017C241.505,230.253,241.564,230.247,241.623,230.244z"/>
			<path style="fill:#F7B7A1;" d="M271.582,233.17c0,0-8.841-2.484-13.689-3.622c-0.118,1.396-0.47,2.735-0.868,4.05
				c1.075,5.157,4.795,13.03,17.535,12.445L271.582,233.17z"/>
			<path style="fill:#F7B7A1;" d="M248.48,242.482c-0.746-0.579-1.007-1.622-0.57-2.5c2.738-5.511,7.037-9.04,7.219-9.187
				c0.868-0.705,2.143-0.571,2.849,0.296c0.704,0.867,0.572,2.141-0.293,2.846l0,0c-0.038,0.031-3.814,3.15-6.147,7.846
				c-0.498,1.002-1.713,1.411-2.715,0.913C248.699,242.636,248.585,242.563,248.48,242.482z"/>
			<path style="fill:#261718;" d="M248.48,242.666c-0.039,0-0.079-0.013-0.113-0.039c-0.827-0.641-1.088-1.788-0.622-2.727
				c2.757-5.552,7.085-9.1,7.268-9.248c0.079-0.064,0.195-0.051,0.259,0.027c0.064,0.079,0.052,0.195-0.027,0.259
				c-0.18,0.146-4.447,3.645-7.17,9.126c-0.389,0.782-0.171,1.738,0.518,2.272c0.08,0.063,0.095,0.178,0.033,0.259
				C248.59,242.642,248.535,242.666,248.48,242.666z"/>
			<path style="fill:#F7B7A1;" d="M252.893,244.69c-0.484-0.376-0.793-0.966-0.785-1.626c0.04-3.192,0.917-5.63,2.608-7.244
				c1.97-1.882,4.27-1.861,4.526-1.853l-0.136,4.048l0.043,0.001c-0.489,0.007-2.932,0.283-2.992,5.098
				c-0.014,1.118-0.932,2.014-2.05,2C253.65,245.108,253.229,244.951,252.893,244.69z"/>
			<path style="fill:#261718;" d="M252.893,244.874c-0.039,0-0.079-0.012-0.113-0.038c-0.552-0.429-0.864-1.075-0.856-1.774
				c0.041-3.244,0.937-5.726,2.665-7.375c0.827-0.79,1.802-1.347,2.9-1.656c0.098-0.027,0.199,0.029,0.227,0.127
				c0.027,0.098-0.03,0.2-0.127,0.227c-1.039,0.293-1.963,0.82-2.746,1.568c-1.654,1.579-2.512,3.972-2.551,7.114
				c-0.007,0.582,0.253,1.121,0.713,1.478c0.08,0.063,0.095,0.178,0.033,0.258C253.002,244.85,252.948,244.874,252.893,244.874z"/>
			<path style="fill:#F7B7A1;" d="M255.908,245.499c-0.449-0.348-0.749-0.882-0.781-1.494c-0.136-2.588,0.539-4.457,2.009-5.555
				c2.3-1.718,5.395-0.623,6.412-0.264c0.019,0.006,0.036,0.013,0.053,0.019c0.416,0.093,0.806,0.318,1.103,0.668
				c0.722,0.854,0.616,2.132-0.238,2.854c-0.9,0.761-1.895,0.41-2.269,0.277c-1.921-0.68-2.504-0.409-2.637-0.31
				c-0.221,0.166-0.456,0.814-0.388,2.097c0.059,1.117-0.799,2.07-1.916,2.129C256.751,245.947,256.279,245.787,255.908,245.499z
				 M261.852,238.634c-0.001,0-0.001,0.001-0.002,0.002C261.85,238.635,261.851,238.634,261.852,238.634z M261.854,238.632
				c0,0.001-0.001,0.001-0.002,0.001C261.853,238.633,261.853,238.633,261.854,238.632z M261.856,238.63
				c0,0.001-0.001,0.001-0.002,0.001C261.855,238.631,261.856,238.631,261.856,238.63z"/>
			<path style="fill:#261718;" d="M255.127,244.189c-0.097,0-0.179-0.076-0.184-0.174c-0.14-2.654,0.561-4.575,2.082-5.712
				c1.057-0.79,2.398-1.102,3.984-0.93c0.101,0.011,0.174,0.102,0.163,0.203c-0.011,0.101-0.102,0.174-0.203,0.163
				c-1.491-0.162-2.744,0.127-3.724,0.859c-1.417,1.058-2.068,2.874-1.935,5.397c0.005,0.101-0.073,0.188-0.174,0.193
				C255.133,244.189,255.13,244.189,255.127,244.189z"/>
		</g>
		<path style="fill:#D22E37;" d="M266.33,247.721l3.992-15.312l13.271,2.781l0.881-12.171c0.367-3.772,3.718-6.536,7.491-6.178l0,0
			c3.907,0.37,6.711,3.931,6.156,7.816c0,0-1.875,15.586-2.958,20.701c-0.895,4.227-5.147,5.96-8.388,5.805
			C281.151,250.893,266.33,247.721,266.33,247.721z"/>
		<path style="fill:#261718;" d="M283.761,235.414l-13.477-2.825c-0.1-0.021-0.163-0.118-0.142-0.218
			c0.021-0.1,0.119-0.164,0.218-0.142l13.065,2.738l0.865-11.962c0.008-0.101,0.095-0.18,0.197-0.17
			c0.101,0.008,0.178,0.096,0.171,0.197L283.761,235.414z"/>
	</g>
	<path style="fill:#261718;" d="M270.543,303.799c-0.026,0-0.052-0.005-0.077-0.017c-0.092-0.042-0.132-0.152-0.09-0.244
		c3.102-6.691,4.115-31.442,4.125-31.691c0.004-0.102,0.092-0.173,0.191-0.177c0.102,0.004,0.181,0.09,0.177,0.191
		c-0.04,1.021-1.026,25.074-4.159,31.831C270.679,303.759,270.613,303.799,270.543,303.799z"/>
	<path style="fill:#261718;" d="M277.815,306.484c-0.077,0-0.149-0.049-0.175-0.126c-1.828-5.508-2.67-21.19-2.679-21.348
		c-0.005-0.101,0.073-0.188,0.174-0.193c0.101-0.012,0.188,0.073,0.194,0.174c0.008,0.157,0.848,15.79,2.66,21.252
		c0.032,0.096-0.02,0.201-0.117,0.233C277.854,306.481,277.834,306.484,277.815,306.484z"/>
</g>
<g>
	<path style="fill:#F3AE91;" d="M152.183,216.824l6.423,3.359c3.274,1.712,7.223,1.479,10.276-0.602
		c2.985-2.035,6.507-4.479,8.151-5.778c1.41-1.114,3.024-2.986,3.618-5.536c0.594-2.551-0.106-5.107-2.081-7.596
		c-0.491-0.619-1.27-0.874-1.994-0.726c-0.4,0.082-0.783,0.286-1.09,0.62c-0.674,0.732-0.682,1.869-0.067,2.651
		c1.165,1.48,1.587,2.829,1.29,4.123c-0.42,1.827-2.226,3.386-3.615,4.306C168.489,209.093,160.061,206.741,152.183,216.824z"/>
	<path style="fill:#6A91B7;" d="M161.195,210.359c-1.322-1.578-3.97,0.245-4.958,1.021c-0.878-0.99-2.172-1.557-3.544-1.48
		l-11.324,3.757c0,0-5.768-4.889-8.054-6.138c-0.324-0.177-4.508-2.281-8.588-1.837c-0.048-0.002-0.098,0-0.146-0.002l-0.191,0.057
		l-0.003,0.001c-5.959,1.936-3.485,9.955,0.309,14.843c2.191,2.823,8.799,10.605,14.21,11.904
		c2.151,0.516,15.792-2.919,20.346-4.872c1.356-0.582,2.484-1.498,2.625-2.688c0.785-0.165,3.242-0.79,4.394-2.349
		C167.65,220.708,162.84,212.323,161.195,210.359z"/>
	<g>
		<path style="fill:#D22E37;" d="M145.535,335.89c7.838-6.764-1.381-34.179-1.617-43.97c-0.424-17.564-8.892-44.691-8.892-44.691
			l-15.972,2.712l7.517,44.274l-0.861,45.667c-0.035,1.849,1.761,3.182,3.521,2.613C134.351,340.842,143.371,337.758,145.535,335.89
			z"/>
		<g>
			<path style="fill:#FFFFFF;" d="M141.903,337.863l-11.872,4.48c0,0-3.181,7.84-1.702,13.26c0,0,17.429-1.393,27.856,1.446
				c2.498,0.68,5.114,0.834,7.661,0.368c2.044-0.374,3.923-1.01,3.861-2.083c-0.134-2.329-2.061-6.541-8.915-4.39
				C158.792,350.944,146.025,339.745,141.903,337.863z"/>
			<path style="fill:#261718;" d="M167.707,355.519c-0.097,0-0.178-0.076-0.184-0.174c-0.071-1.24-0.662-2.92-2.107-3.918
				c-1.564-1.081-3.774-1.184-6.569-0.307l-0.099,0.031l-0.078-0.068c-0.128-0.112-12.794-11.203-16.844-13.052
				c-0.092-0.042-0.133-0.151-0.091-0.244c0.042-0.092,0.151-0.132,0.244-0.091c3.977,1.816,15.686,12.018,16.857,13.043
				c2.862-0.88,5.146-0.749,6.79,0.386c1.553,1.073,2.189,2.874,2.265,4.2c0.006,0.101-0.072,0.188-0.173,0.194
				C167.714,355.519,167.711,355.519,167.707,355.519z"/>
			<path style="fill:#261718;" d="M140.509,342.392c-0.06,0-0.118-0.029-0.154-0.083c-0.056-0.085-0.033-0.199,0.052-0.255
				l4.292-2.832c0.085-0.057,0.199-0.033,0.255,0.052c0.056,0.085,0.033,0.199-0.052,0.255l-4.292,2.832
				C140.579,342.383,140.544,342.392,140.509,342.392z"/>
			<path style="fill:#261718;" d="M142.373,343.809c-0.06,0-0.118-0.029-0.154-0.083c-0.056-0.085-0.033-0.199,0.052-0.255
				l4.292-2.832c0.085-0.056,0.199-0.033,0.255,0.052c0.056,0.085,0.033,0.199-0.052,0.255l-4.292,2.832
				C142.443,343.799,142.408,343.809,142.373,343.809z"/>
			<path style="fill:#261718;" d="M144.238,345.225c-0.06,0-0.118-0.029-0.154-0.083c-0.056-0.085-0.033-0.199,0.052-0.255
				l4.292-2.833c0.085-0.056,0.199-0.032,0.255,0.052c0.056,0.085,0.033,0.199-0.052,0.255l-4.292,2.833
				C144.307,345.215,144.272,345.225,144.238,345.225z"/>
			<path style="fill:#261718;" d="M146.102,346.642c-0.06,0-0.118-0.029-0.154-0.083c-0.056-0.085-0.033-0.199,0.052-0.255
				l4.292-2.833c0.085-0.056,0.199-0.032,0.255,0.052c0.056,0.085,0.033,0.199-0.052,0.255l-4.292,2.833
				C146.172,346.632,146.137,346.642,146.102,346.642z"/>
			<path style="fill:#261718;" d="M147.966,348.057c-0.06,0-0.118-0.029-0.154-0.083c-0.056-0.085-0.033-0.199,0.052-0.255
				l4.292-2.832c0.085-0.057,0.199-0.032,0.255,0.052c0.056,0.085,0.033,0.199-0.052,0.255l-4.292,2.832
				C148.036,348.048,148.001,348.057,147.966,348.057z"/>
			<rect x="127.045" y="355.29" style="fill:#EFE8E6;" width="42.036" height="5.585"/>
			<path style="fill:#261718;" d="M136.07,342.326c-0.915,0-1.707-0.156-2.204-0.568c-0.477-0.396-0.652-0.983-0.521-1.747
				c0.137-0.801,0.537-1.363,1.189-1.669c2.558-1.202,8.191,2.011,8.429,2.148l0.34,0.196l-0.368,0.136
				C142.719,340.902,138.835,342.326,136.07,342.326z M135.936,338.438c-0.468,0-0.892,0.071-1.245,0.237
				c-0.544,0.256-0.865,0.713-0.983,1.398c-0.108,0.633,0.02,1.091,0.393,1.401c1.579,1.311,6.846-0.357,8.32-0.862
				C141.36,340.044,138.163,338.438,135.936,338.438z"/>
			<path style="fill:#261718;" d="M137.545,344.642c-0.131,0-0.258-0.013-0.38-0.039c-0.658-0.142-1.122-0.653-1.381-1.521
				c-0.268-0.899-0.152-1.635,0.342-2.188c1.681-1.882,7.223-0.917,7.458-0.875l0.319,0.057l-0.212,0.245
				C143.53,340.507,139.922,344.642,137.545,344.642z M140.254,340.106c-1.508,0-3.124,0.216-3.854,1.033
				c-0.409,0.458-0.495,1.06-0.264,1.838c0.22,0.739,0.582,1.153,1.105,1.265c1.849,0.404,5.071-2.956,5.946-3.913
				C142.64,340.25,141.483,340.106,140.254,340.106z"/>
		</g>
	</g>
	<path style="fill:#261718;" d="M159.251,227.814c-0.078,0-0.151-0.046-0.184-0.121c-0.044-0.102,0.003-0.22,0.105-0.263
		c0.985-0.423,3.184-1.625,2.329-3.655l-1.44-3.415c-0.043-0.103,0.004-0.22,0.107-0.263c0.102-0.043,0.219,0.005,0.262,0.106
		l1.44,3.416c0.69,1.638-0.259,3.2-2.54,4.178C159.305,227.809,159.278,227.814,159.251,227.814z"/>
	<g>
		<path style="fill:#D22E37;" d="M115.932,338.237c3.57-1.595,5.912-5.088,6.033-8.997c0.336-10.86,0.992-32.067,0.992-32.088
			l2.094-26.351l1.995-25.111l-23.564,0.104c0,0-2.503,37.903-0.407,51.422c0,0-11.375,38.587-4.438,45.579
			C100.49,344.662,109.706,341.017,115.932,338.237z"/>
		<path style="fill:#261718;" d="M123.325,294.391c-0.005,0-0.01,0-0.015-0.001c-0.101-0.008-0.177-0.097-0.169-0.198l2.893-36.406
			c0.008-0.101,0.098-0.175,0.198-0.169c0.101,0.008,0.177,0.097,0.169,0.198l-2.893,36.406
			C123.5,294.318,123.42,294.391,123.325,294.391z"/>
		<g>
			<path style="fill:#FFFFFF;" d="M116.44,337.863l-11.872,4.48c0,0-3.181,7.84-1.702,13.26c0,0,17.429-1.393,27.856,1.446
				c2.498,0.68,5.114,0.834,7.661,0.368c2.044-0.374,3.923-1.01,3.861-2.083c-0.134-2.329-2.061-6.541-8.915-4.39
				C133.329,350.944,120.561,339.745,116.44,337.863z"/>
			<path style="fill:#261718;" d="M142.243,355.519c-0.097,0-0.178-0.076-0.184-0.174c-0.072-1.24-0.662-2.92-2.107-3.918
				c-1.564-1.081-3.774-1.184-6.569-0.307l-0.099,0.031l-0.078-0.068c-0.128-0.112-12.794-11.203-16.844-13.052
				c-0.093-0.042-0.133-0.151-0.091-0.244c0.042-0.092,0.151-0.132,0.244-0.091c3.977,1.816,15.686,12.018,16.856,13.043
				c2.862-0.88,5.146-0.749,6.79,0.386c1.553,1.073,2.188,2.874,2.265,4.2c0.006,0.101-0.072,0.188-0.173,0.194
				C142.251,355.519,142.247,355.519,142.243,355.519z"/>
			<path style="fill:#261718;" d="M115.045,342.392c-0.06,0-0.118-0.029-0.154-0.083c-0.056-0.085-0.033-0.199,0.052-0.255
				l4.292-2.832c0.085-0.057,0.199-0.033,0.255,0.052c0.056,0.085,0.033,0.199-0.052,0.255l-4.292,2.832
				C115.115,342.383,115.08,342.392,115.045,342.392z"/>
			<path style="fill:#261718;" d="M116.91,343.809c-0.06,0-0.118-0.029-0.154-0.083c-0.056-0.085-0.033-0.199,0.052-0.255
				l4.292-2.832c0.085-0.056,0.199-0.033,0.255,0.052c0.056,0.085,0.033,0.199-0.052,0.255l-4.292,2.832
				C116.979,343.799,116.944,343.809,116.91,343.809z"/>
			<path style="fill:#261718;" d="M118.774,345.225c-0.06,0-0.118-0.029-0.154-0.083c-0.056-0.085-0.033-0.199,0.052-0.255
				l4.292-2.833c0.085-0.056,0.199-0.032,0.255,0.052c0.056,0.085,0.033,0.199-0.052,0.255l-4.292,2.833
				C118.844,345.215,118.809,345.225,118.774,345.225z"/>
			<path style="fill:#261718;" d="M120.638,346.642c-0.06,0-0.118-0.029-0.154-0.083c-0.056-0.085-0.033-0.199,0.052-0.255
				l4.292-2.833c0.085-0.056,0.199-0.032,0.255,0.052c0.056,0.085,0.033,0.199-0.052,0.255l-4.292,2.833
				C120.708,346.632,120.673,346.642,120.638,346.642z"/>
			<path style="fill:#261718;" d="M122.503,348.057c-0.06,0-0.118-0.029-0.154-0.083c-0.056-0.085-0.033-0.199,0.052-0.255
				l4.292-2.832c0.085-0.057,0.199-0.032,0.255,0.052c0.056,0.085,0.033,0.199-0.052,0.255l-4.292,2.832
				C122.573,348.048,122.537,348.057,122.503,348.057z"/>
			<rect x="101.581" y="355.29" style="fill:#EFE8E6;" width="42.036" height="5.585"/>
			<path style="fill:#261718;" d="M143.617,361.059c-0.102,0-0.184-0.082-0.184-0.184v-5.401h-20.649
				c-0.102,0-0.184-0.082-0.184-0.184c0-0.102,0.082-0.184,0.184-0.184h21.017v5.769
				C143.802,360.977,143.719,361.059,143.617,361.059z"/>
			<path style="fill:#261718;" d="M110.606,342.326c-0.915,0-1.708-0.156-2.204-0.568c-0.477-0.396-0.652-0.983-0.521-1.747
				c0.137-0.801,0.537-1.363,1.189-1.669c2.558-1.202,8.191,2.011,8.429,2.148l0.34,0.196l-0.368,0.136
				C117.255,340.902,113.371,342.326,110.606,342.326z M110.472,338.438c-0.468,0-0.892,0.071-1.245,0.237
				c-0.544,0.256-0.865,0.713-0.983,1.398c-0.108,0.633,0.02,1.091,0.393,1.401c1.579,1.311,6.846-0.357,8.321-0.862
				C115.896,340.044,112.699,338.438,110.472,338.438z"/>
			<path style="fill:#261718;" d="M112.081,344.642c-0.131,0-0.258-0.013-0.38-0.039c-0.658-0.142-1.122-0.653-1.381-1.521
				c-0.268-0.899-0.152-1.635,0.342-2.188c1.681-1.882,7.223-0.917,7.458-0.875l0.319,0.057l-0.212,0.245
				C118.066,340.507,114.458,344.642,112.081,344.642z M114.79,340.106c-1.508,0-3.124,0.216-3.854,1.033
				c-0.409,0.458-0.495,1.06-0.264,1.838c0.22,0.739,0.582,1.153,1.105,1.265c1.849,0.404,5.071-2.956,5.946-3.913
				C117.176,340.25,116.019,340.106,114.79,340.106z"/>
		</g>
	</g>
	<path style="fill:#6A91B7;" d="M137.322,242.182c-0.195,4.941,0.792,8.903-4.146,9.113l-27.618-1.443
		c-6.506,0.276-6.709-7.217-5.199-13.549c2.887-12.136,2.699-24.393,6.013-27.471c3.634-3.373,13.365-3.969,17.946-3.465
		c0.976,0.085,2.069,0.221,3.2,0.423c0.026,0.004,0.051,0.011,0.077,0.015h0.004c0.11,0.018,0.221,0.04,0.335,0.063
		c0.927,0.347,2.616,1.363,4.133,2.333c2.083,1.333,3.449,3.532,3.726,5.989c0.48,4.256,0.783,9.947,1.092,14.403
		c0.11,1.605,0.214,3.236,0.295,4.842C137.34,236.541,137.425,239.564,137.322,242.182z"/>
	<g>
		<path style="fill:#F3AE91;" d="M119.466,197.537l-0.188,8.396c-0.197,1.785,0.667,3.579,2.164,4.492l0,0
			c2.758,1.681,6.049-0.133,6.253-3.446l0.107-1.883L119.466,197.537z"/>
		<path style="fill:#261718;" d="M127.707,206.795c-0.101-0.009-0.189,0.071-0.195,0.173c-0.094,1.53-0.898,2.834-2.15,3.487
			c-1.204,0.629-2.598,0.561-3.823-0.187c-1.431-0.873-2.266-2.607-2.077-4.315c0.011-0.101-0.062-0.192-0.163-0.203
			c-0.103-0.009-0.192,0.062-0.203,0.163c-0.204,1.847,0.701,3.724,2.252,4.669c0.729,0.445,1.514,0.668,2.291,0.668
			c0.649,0,1.293-0.156,1.894-0.47c1.368-0.713,2.245-2.131,2.347-3.791C127.886,206.888,127.808,206.801,127.707,206.795z"/>
		<g>
			<path style="fill:#F3AE91;" d="M128.948,199.63c-0.343,1.199,0.35,2.45,1.55,2.793s2.45-0.35,2.793-1.549
				c0.343-1.199-0.35-2.45-1.55-2.793C130.542,197.737,129.292,198.431,128.948,199.63z"/>
			<path style="fill:#261718;" d="M135.344,195.377c-0.174,2.271-2.5,3.944-5.195,3.737c-2.694-0.207-4.737-2.215-4.563-4.486
				c0.174-2.271,2.5-3.943,5.195-3.737C133.476,191.098,135.519,193.106,135.344,195.377z"/>
			<path style="fill:#F3AE91;" d="M125.021,205.243c0.274,0.071,0.544,0.12,0.809,0.149c2.568,0.298,4.665-1.27,5.781-3.723
				c0.036-0.081,0.072-0.161,0.106-0.246c0.179-0.419,0.326-0.861,0.443-1.323c0.02-0.076,0.037-0.156,0.055-0.235
				c0.027-0.119,0.052-0.238,0.076-0.361c0.03-0.15,0.058-0.303,0.08-0.457c0.834-5.677-0.711-7.731-4.509-8.716
				c-3.798-0.988-7.727,1.498-8.778,5.549C118.034,199.928,121.222,204.261,125.021,205.243z"/>
			<path style="fill:#DE704B;" d="M131.249,201.327c0.157,0.05,0.317,0.081,0.468,0.096c0.179-0.419,0.326-0.861,0.443-1.323
				c0.02-0.076,0.037-0.156,0.055-0.235c0.027-0.119,0.052-0.238,0.076-0.361c-0.127-0.072-0.271-0.133-0.423-0.179
				c-0.839-0.258-1.655-0.02-1.829,0.531C129.87,200.41,130.41,201.066,131.249,201.327z"/>
			<polygon style="fill:#261718;" points="120.097,197.45 119.396,202.13 118.109,195.148 121.127,195.554 			"/>
			<path style="fill:#45282A;" d="M128.989,196.575c-0.108,0.392,2.448,1.095,2.555,0.703c0.108-0.392-0.779-1.086-1.485-1.28
				C129.354,195.804,129.097,196.183,128.989,196.575z"/>
			<path style="fill:#261718;" d="M126.429,205.61c-0.205,0-0.412-0.012-0.621-0.036c-0.264-0.028-0.545-0.079-0.833-0.153
				c-1.469-0.38-2.899-1.269-4.027-2.501c-0.068-0.075-0.063-0.192,0.012-0.26c0.075-0.068,0.191-0.063,0.26,0.012
				c1.08,1.181,2.446,2.031,3.847,2.393c0.27,0.069,0.533,0.117,0.782,0.144c2.802,0.325,5.267-1.745,6.132-5.152
				c0.025-0.099,0.126-0.16,0.224-0.133c0.099,0.025,0.158,0.125,0.133,0.224C131.489,203.49,129.159,205.61,126.429,205.61z"/>
			<path style="fill:#45282A;" d="M127.194,196.085c-0.106,0.392-2.665-0.3-2.558-0.692c0.106-0.392,1.223-0.54,1.929-0.349
				C127.271,195.236,127.3,195.693,127.194,196.085z"/>
			<path style="fill:#FFFFFF;" d="M124.725,197.396c0.026,0.026,0.052,0.048,0.081,0.07c0.026,0.018,0.048,0.033,0.074,0.052
				c0.026,0.015,0.048,0.037,0.077,0.048c0.114,0.07,0.247,0.133,0.394,0.18c0.015,0.007,0.026,0.011,0.04,0.015
				c0.041,0.018,0.089,0.029,0.14,0.044c0.158,0.044,0.313,0.063,0.46,0.066c0.081,0.011,0.158,0.007,0.236,0
				c0.037-0.004,0.074-0.007,0.11-0.015c0.291-0.044,0.501-0.169,0.549-0.353c0.048-0.188-0.074-0.398-0.302-0.574
				c-0.103-0.081-0.228-0.158-0.368-0.221l-0.007-0.004c-0.059-0.03-0.129-0.055-0.199-0.077c-0.004-0.004-0.004-0.004-0.007,0
				c-0.052-0.022-0.099-0.033-0.151-0.048c-0.026-0.007-0.052-0.015-0.077-0.022c-0.026-0.007-0.048-0.011-0.074-0.015
				c-0.107-0.019-0.21-0.029-0.309-0.033c-0.059-0.004-0.11-0.004-0.166,0c-0.063,0.004-0.122,0.007-0.177,0.018
				c-0.295,0.037-0.504,0.166-0.549,0.353C124.456,197.046,124.545,197.23,124.725,197.396z"/>
			<path style="fill:#261718;" d="M131.964,191.433c0,0-1.998,5.118-10.821,5.85c0,0-2.271-0.451-2.689-1.038
				C116.616,193.666,119.61,183.303,131.964,191.433z"/>
			<path style="fill:#3A2527;" d="M121.142,197.467c-0.095,0-0.175-0.073-0.183-0.169c-0.008-0.101,0.067-0.19,0.168-0.199
				c8.591-0.712,10.645-5.683,10.665-5.734c0.037-0.095,0.144-0.141,0.239-0.104c0.094,0.037,0.141,0.144,0.104,0.238
				c-0.02,0.052-2.142,5.234-10.977,5.966C121.153,197.467,121.147,197.467,121.142,197.467z"/>
			<path style="fill:#FFFFFF;" d="M128.794,198.423c0,0.004,0,0.004,0,0.004c0.015,0.018,0.033,0.033,0.051,0.048
				c0.059,0.052,0.122,0.103,0.191,0.147c0.026,0.011,0.048,0.026,0.07,0.037c0.07,0.037,0.147,0.074,0.228,0.107
				c0.044,0.018,0.089,0.037,0.136,0.052c0.044,0.022,0.099,0.029,0.144,0.044c0.165,0.044,0.327,0.066,0.482,0.07
				c0.074,0,0.147-0.004,0.214-0.011c0.059-0.007,0.111-0.015,0.162-0.026c0.239-0.059,0.409-0.18,0.453-0.342
				c0.048-0.195-0.074-0.409-0.302-0.589c-0.107-0.085-0.239-0.162-0.39-0.225c-0.048-0.026-0.103-0.041-0.155-0.059
				c-0.004-0.004-0.007-0.004-0.011-0.004c-0.044-0.018-0.088-0.029-0.136-0.044c-0.048-0.007-0.096-0.022-0.144-0.03
				c-0.011-0.004-0.026-0.004-0.037-0.004c-0.088-0.018-0.173-0.026-0.258-0.03c-0.055-0.004-0.11-0.004-0.162,0
				c-0.059,0.004-0.114,0.007-0.169,0.018c-0.287,0.044-0.497,0.173-0.545,0.368C128.576,198.107,128.65,198.276,128.794,198.423z"
				/>
			<path style="fill:#261718;" d="M129.268,198.416c0,0.125,0.022,0.239,0.066,0.35c0.044,0.018,0.089,0.037,0.136,0.052
				c0.044,0.022,0.099,0.029,0.144,0.044c0.165,0.044,0.327,0.066,0.482,0.07c0.074,0,0.147-0.004,0.214-0.011
				c0.059-0.007,0.111-0.015,0.162-0.026c0.239-0.059,0.409-0.18,0.453-0.342c0.048-0.195-0.074-0.409-0.302-0.589
				c-0.107-0.085-0.239-0.162-0.39-0.225c-0.048-0.026-0.103-0.041-0.155-0.059c-0.004-0.004-0.007-0.004-0.011-0.004
				c-0.044-0.018-0.088-0.029-0.136-0.044c-0.048-0.007-0.096-0.022-0.144-0.03c-0.011-0.004-0.026-0.004-0.037-0.004
				C129.464,197.757,129.268,198.062,129.268,198.416z"/>
			<path style="fill:#261718;" d="M125.274,197.381c0,0.129,0.026,0.254,0.077,0.365c0.015,0.007,0.026,0.011,0.04,0.015
				c0.041,0.018,0.089,0.029,0.14,0.044c0.158,0.044,0.313,0.063,0.46,0.066c0.081,0.011,0.158,0.007,0.236,0
				c0.037-0.004,0.074-0.007,0.11-0.015c0.291-0.044,0.501-0.169,0.549-0.353c0.048-0.188-0.074-0.398-0.302-0.574
				c-0.103-0.081-0.228-0.158-0.368-0.221l-0.007-0.004c-0.059-0.03-0.129-0.055-0.199-0.077c-0.004-0.004-0.004-0.004-0.007,0
				c-0.052-0.022-0.099-0.033-0.151-0.048c-0.026-0.007-0.052-0.015-0.077-0.022C125.476,196.711,125.274,197.024,125.274,197.381z"
				/>
			<path style="fill:#F3AE91;" d="M122.779,197.948c-0.313,1.208-1.546,1.933-2.753,1.62c-1.208-0.313-1.933-1.546-1.62-2.753
				c0.313-1.208,1.546-1.933,2.753-1.62C122.367,195.507,123.092,196.74,122.779,197.948z"/>
			<path style="fill:#261718;" d="M128.644,200.596c-0.066-0.009-0.125-0.054-0.149-0.121c-0.033-0.095,0.018-0.199,0.113-0.232
				c0.114-0.04,0.14-0.077,0.14-0.083c0.01-0.154-0.539-0.57-1.151-0.874c-0.078-0.039-0.12-0.126-0.098-0.21l0.452-1.745
				c0.025-0.098,0.124-0.158,0.222-0.131c0.098,0.025,0.156,0.125,0.131,0.222l-0.415,1.603c0.46,0.24,1.251,0.719,1.223,1.158
				c-0.008,0.127-0.081,0.299-0.385,0.405C128.699,200.597,128.671,200.6,128.644,200.596z"/>
			<path style="fill:#DE704B;" d="M125.368,199.078c-0.076,0.573-0.843,0.944-1.713,0.829c-0.87-0.116-1.513-0.674-1.437-1.247
				c0.076-0.573,0.843-0.944,1.712-0.829C124.801,197.947,125.444,198.505,125.368,199.078z"/>
			<path style="fill:#3A2527;" d="M125.628,193.52c-0.598,0-1.212-0.053-1.831-0.161c-1.89-0.331-3.397-1.126-4.029-2.128
				c-0.054-0.086-0.029-0.2,0.057-0.254c0.087-0.054,0.2-0.028,0.254,0.057c0.569,0.902,2.018,1.654,3.781,1.962
				c1.858,0.324,4.468,0.185,6.226-1.182c0.081-0.063,0.196-0.048,0.258,0.032c0.063,0.08,0.048,0.196-0.032,0.258
				C129.128,193.026,127.453,193.52,125.628,193.52z"/>
			<path style="fill:#FFFFFF;" d="M125.052,200.618c-0.269,0.627,0.196,1.429,1.04,1.792c0.844,0.362,1.746,0.148,2.016-0.479
				c0.27-0.627-0.639-0.399-1.483-0.762C125.782,200.806,125.322,199.991,125.052,200.618z"/>
			<path style="fill:#261718;" d="M119.315,196.548c-0.048-0.006-0.093-0.031-0.124-0.073c-0.059-0.082-0.041-0.196,0.04-0.255
				c0.484-0.352,0.962-0.492,1.44-0.415c0.706,0.115,1.114,0.679,1.131,0.703c0.058,0.082,0.039,0.195-0.043,0.254
				c-0.082,0.059-0.195,0.04-0.255-0.042c-0.003-0.005-0.341-0.466-0.897-0.555c-0.367-0.06-0.762,0.059-1.162,0.35
				C119.407,196.543,119.36,196.553,119.315,196.548z"/>
		</g>
	</g>
	<path style="fill:#261718;" d="M133.175,251.48c-0.098,0-0.18-0.077-0.184-0.176c-0.004-0.102,0.074-0.188,0.176-0.192
		c3.942-0.167,3.941-2.71,3.939-6.558c0-0.763-0.001-1.553,0.032-2.378c0.436-11.068-1.738-27.92-3.541-30.992
		c-0.051-0.088-0.022-0.2,0.066-0.252c0.087-0.051,0.2-0.022,0.252,0.066c1.984,3.381,3.998,20.872,3.591,31.193
		c-0.032,0.818-0.032,1.604-0.032,2.364c0.001,3.768,0.003,6.743-4.292,6.926C133.181,251.48,133.178,251.48,133.175,251.48z"/>
	<g>
		<path style="fill:#60322B;" d="M181.28,193.257l-75.742,74.249c-5.083,4.983-13.243,4.901-18.226-0.182
			c-4.983-5.083-4.902-13.243,0.181-18.226c0.402-0.394,0.883-0.799,1.321-1.13l85.044-63.382c2.533-1.888,6.117-1.365,8.004,1.168
			C183.594,188.078,183.296,191.286,181.28,193.257z"/>
		<path style="fill:#FFFFFF;" d="M269.067,164.161c-2.557,9.826-7.568,18.363-14.206,25.126
			c-7.547,7.697-17.207,13.094-27.753,15.474c-6.032,1.37-12.359,1.745-18.747,1.002c-2.566-0.299-5.135-0.78-7.705-1.446
			c-9.596-2.497-17.959-7.329-24.642-13.733c-14.205-13.6-20.823-34.29-15.518-54.677c2.723-10.464,8.23-19.47,15.518-26.423
			c7.887-7.523,17.858-12.65,28.65-14.634c7.81-1.438,16.052-1.232,24.242,0.901C258.889,103.553,276.869,134.182,269.067,164.161z"
			/>
		<path style="fill:#60322B;" d="M214.831,210.19c-2.31,0-4.625-0.135-6.937-0.404c-2.751-0.321-5.528-0.842-8.254-1.549
			c-9.93-2.584-19.068-7.677-26.426-14.729c-15.747-15.075-22.122-37.538-16.636-58.621c2.821-10.84,8.576-20.638,16.643-28.334
			c8.53-8.137,19.15-13.561,30.712-15.687c8.665-1.597,17.411-1.271,25.995,0.965c15.547,4.045,28.588,13.903,36.721,27.758
			c8.133,13.854,10.384,30.045,6.338,45.592l0,0c-2.647,10.168-7.915,19.485-15.235,26.943
			c-8.134,8.295-18.422,14.031-29.751,16.588C223.667,209.697,219.258,210.19,214.831,210.19z M214.763,97.973
			c-3.125,0-6.251,0.287-9.365,0.86c-10.008,1.84-19.201,6.536-26.587,13.581c-6.976,6.655-11.954,15.132-14.395,24.513
			c-4.747,18.244,0.771,37.683,14.4,50.731c6.364,6.099,14.268,10.503,22.861,12.739c2.364,0.613,4.772,1.065,7.154,1.343
			c5.83,0.679,11.678,0.366,17.381-0.929c9.811-2.214,18.716-7.179,25.758-14.36c6.331-6.451,10.888-14.511,13.178-23.311
			c3.501-13.452,1.553-27.463-5.484-39.451c-7.037-11.989-18.323-20.519-31.776-24.02C223.545,98.54,219.156,97.973,214.763,97.973z
			 M269.067,164.161h0.004H269.067z"/>
		<g>
			<path style="fill:#D22E37;" d="M181.624,139.367h11.588v4.161h-8.237v3.965h7.148v4.16h-7.148v8.712h-3.351V139.367z"/>
			<path style="fill:#D22E37;" d="M200.36,139.367h3.714l6.506,20.998h-3.49l-1.563-5.222h-6.59l-1.619,5.222h-3.518L200.36,139.367
				z M204.269,151.011l-2.038-6.59l-2.038,6.59H204.269z"/>
			<path style="fill:#D22E37;" d="M212.088,139.367h3.378v7.679l6.506-7.679h4.663l-7.037,8.377l7.595,12.621h-4.216l-5.836-9.689
				l-1.676,1.983v7.706h-3.378V139.367z"/>
			<path style="fill:#D22E37;" d="M228.701,139.367h11.727v4.161h-8.376v3.965h7.623v4.16h-7.623v4.524h8.572v4.188h-11.923V139.367
				z"/>
			<path style="fill:#D22E37;" d="M243.584,157.964c0-1.508,0.977-2.737,2.178-2.737c1.201,0,2.178,1.229,2.178,2.737
				c0,1.508-0.977,2.736-2.178,2.736C244.561,160.7,243.584,159.472,243.584,157.964z M243.751,139.926h4.049l-0.698,14.101h-2.681
				L243.751,139.926z"/>
		</g>
	</g>
	<g>
		<g>
			<path style="fill:#F3AE91;" d="M139.629,244.309c-3.963,0.593-15.741,1.381-15.741,1.381l0.846-8.337l0.416-4.104l0.006-0.067
				c0.014-0.005,0.029-0.009,0.043-0.014c4.012-1.275,6.949-0.649,9.091,0.804c3.649,2.481,4.992,7.367,5.401,9.365
				C139.79,243.81,140.104,244.239,139.629,244.309z"/>
			<path style="fill:#F3AE91;" d="M153.978,230.325c-0.387-1.148-1.663-1.689-2.744-1.209c-6.256,2.783-10.807,3.845-13.893,4.183
				c-0.799,0.088-1.25-0.897-0.663-1.447c0.95-0.889,1.965-1.692,4.337-2.398c1.07-0.318,1.682-1.446,1.364-2.52
				c-0.322-1.07-1.449-1.682-2.519-1.36c-4.513,1.343-13.886,6.37-14.704,7.608c-0.017,0.027-0.423,4.17-0.423,4.17
				c0.112,0.129,0.249,0.241,0.404,0.337c0.378,0.24,0.806,0.335,1.221,0.307c0.617-0.043,1.203-0.368,1.559-0.935
				c0.055-0.081,1.071-1.541,3.63-2.456l-0.964,2.241c0.355,0.152,2.245,0.864,6.064,0.599c3.58-0.249,8.854-1.356,16.145-4.589
				C153.762,232.426,154.318,231.332,153.978,230.325z"/>
			<path style="fill:#F3AE91;" d="M137.33,241.352c-0.632,0.044-1.16,0.035-1.597-0.023c-1.109-0.149-1.887-1.168-1.738-2.276
				c0.149-1.109,1.168-1.887,2.276-1.738c0.813,0.109,3.544-0.121,12.679-2.894c0.982-0.298,1.085-0.329,1.311-0.357
				c1.111-0.136,2.12,0.656,2.255,1.766c0.127,1.046-0.568,2.003-1.578,2.223c-0.131,0.036-0.414,0.123-0.812,0.244
				c-3.433,1.042-6.187,1.803-8.379,2.309C139.901,241.03,138.453,241.274,137.33,241.352z M150.917,238.057
				c-0.055,0.011-0.111,0.02-0.167,0.027C150.779,238.08,150.836,238.075,150.917,238.057z"/>
			<path style="fill:#F3AE91;" d="M139.209,243.117c-2.204,0.153-3.08-0.079-3.497-0.19c-1.081-0.287-1.725-1.396-1.438-2.477
				c0.287-1.081,1.396-1.725,2.477-1.438c0.506,0.134,2.768,0.43,10.657-1.398c0.163-0.038,0.279-0.064,0.338-0.077
				c1.093-0.236,2.171,0.461,2.405,1.554c0.235,1.093-0.461,2.17-1.554,2.405c-0.048,0.01-0.142,0.032-0.275,0.063
				c-2.581,0.598-4.633,0.987-6.27,1.232C140.917,242.962,139.982,243.063,139.209,243.117z"/>
			<path style="fill:#F3AE91;" d="M135.596,244.689c-1.348,0.042-1.973-0.109-2.306-0.19c-1.087-0.263-1.755-1.358-1.492-2.445
				c0.263-1.087,1.358-1.755,2.445-1.491c0.509,0.123,2.777,0.37,10.623-1.63c0.163-0.042,0.277-0.071,0.337-0.085
				c1.087-0.26,2.18,0.414,2.439,1.502c0.259,1.088-0.413,2.18-1.502,2.439c-0.048,0.011-0.142,0.031-0.274,0.069
				C140.364,244.462,137.393,244.633,135.596,244.689z"/>
			<path style="fill:#261718;" d="M140.646,237.079c-0.086,0-0.163-0.061-0.18-0.148c-0.02-0.1,0.045-0.197,0.145-0.216
				c3.634-0.721,7.707-2.076,12.105-4.026c0.91-0.404,1.387-1.416,1.088-2.305c-0.033-0.096,0.019-0.201,0.116-0.233
				c0.097-0.032,0.201,0.019,0.233,0.116c0.359,1.067-0.206,2.279-1.288,2.758c-4.423,1.961-8.522,3.324-12.183,4.051
				C140.67,237.078,140.658,237.079,140.646,237.079z"/>
			<path style="fill:#261718;" d="M141.747,240.788c-0.084,0-0.16-0.058-0.179-0.143c-0.023-0.099,0.039-0.198,0.138-0.221
				c2.158-0.498,4.895-1.252,8.367-2.305l0.179-0.054c0.306-0.093,0.526-0.16,0.637-0.191c0.097-0.026,0.199,0.031,0.226,0.129
				c0.027,0.098-0.031,0.199-0.129,0.226c-0.11,0.03-0.326,0.096-0.627,0.187l-0.179,0.055c-3.48,1.056-6.225,1.813-8.392,2.312
				C141.774,240.787,141.76,240.788,141.747,240.788z"/>
			<path style="fill:#261718;" d="M142.052,242.976c-0.09,0-0.168-0.065-0.182-0.157c-0.015-0.101,0.054-0.194,0.155-0.209
				c1.783-0.267,3.888-0.681,6.256-1.23c0.134-0.031,0.229-0.053,0.277-0.063c0.099-0.022,0.197,0.041,0.219,0.141
				c0.021,0.1-0.042,0.197-0.141,0.219c-0.047,0.01-0.14,0.032-0.272,0.063c-2.377,0.551-4.492,0.966-6.284,1.235
				C142.07,242.975,142.061,242.976,142.052,242.976z"/>
		</g>
		<path style="fill:#6A91B7;" d="M92.542,226.46c2.265-4.404,9.482-12.957,13.049-16.84c2.476-2.696,7.66-2.555,10.263,0.019
			c2.602,2.574,3.503,7.217,1.081,9.962c-1.721,1.951-6.888,7.813-6.888,7.813l11.398,2.451c0.879,0.189,1.597,0.722,2.045,1.428
			c1.551-0.078,4.004,0.032,4.653,1.416c0.97,2.067-0.141,12.271-1.618,13.495c-0.892,0.74-3.381,0.253-5.211-0.247
			c-0.826,0.867-2.109,1.253-3.347,0.846l-21.744-7.142C90.288,238.309,90.299,230.821,92.542,226.46z"/>
		<path style="fill:#261718;" d="M126.668,246.085c-0.065-0.078-0.181-0.089-0.259-0.024c-0.618,0.512-2.314,0.433-4.775-0.212
			c0.357-0.448,0.613-0.974,0.71-1.553c0.017-0.1-0.051-0.195-0.151-0.212c-0.101-0.017-0.195,0.051-0.212,0.151
			c-0.146,0.877-0.667,1.644-1.428,2.104c-0.761,0.461-1.683,0.564-2.528,0.288l-21.744-7.142c-0.097-0.032-0.2,0.021-0.232,0.117
			c-0.032,0.097,0.021,0.201,0.117,0.232l21.744,7.142c0.348,0.115,0.708,0.171,1.066,0.171c0.616,0,1.228-0.167,1.767-0.493
			c0.231-0.14,0.438-0.309,0.626-0.494c0.001,0,0.002,0.002,0.003,0.002c1.498,0.403,2.706,0.605,3.616,0.605
			c0.761,0,1.314-0.141,1.655-0.423C126.722,246.28,126.733,246.164,126.668,246.085z"/>
		<path style="fill:#261718;" d="M128.311,232.63c-0.656-1.397-2.908-1.605-4.724-1.526c-0.497-0.731-1.239-1.234-2.103-1.42
			c0,0,0,0-0.001,0c0,0,0,0,0,0l-9.641-2.023c0.821-1.092,4.201-5.643,5.261-7.985c0.042-0.093,0.001-0.202-0.092-0.243
			c-0.093-0.042-0.202-0.001-0.244,0.092c-1.167,2.578-5.352,8.09-5.394,8.146l-0.176,0.232l10.209,2.142c0,0,0,0,0,0
			c0.801,0.172,1.486,0.651,1.929,1.347l0.058,0.09l0.107-0.005c1.41-0.069,3.865,0.005,4.478,1.311
			c0.031,0.067,0.098,0.106,0.167,0.106c0.026,0,0.053-0.006,0.078-0.018C128.314,232.832,128.354,232.722,128.311,232.63z"/>
	</g>
	<path style="fill:#F3AE91;" d="M171.868,199.351c0.925-0.189,1.886,0.292,2.268,1.195c2.4,5.666,2.278,11.227,2.271,11.461
		c-0.03,1.118-0.962,1.998-2.08,1.969c-1.117-0.03-1.998-0.96-1.969-2.076l0,0c0.001-0.049,0.093-4.946-1.952-9.774
		c-0.436-1.03,0.045-2.219,1.075-2.655C171.609,199.417,171.738,199.378,171.868,199.351z"/>
	<path style="fill:#261718;" d="M176.408,212.191c-0.002,0-0.004,0-0.005,0c-0.102-0.003-0.182-0.087-0.179-0.189
		c0.007-0.232,0.13-5.749-2.257-11.384c-0.341-0.804-1.208-1.261-2.062-1.086c-0.099,0.019-0.197-0.044-0.217-0.144
		c-0.021-0.1,0.044-0.197,0.143-0.217c1.025-0.21,2.066,0.339,2.475,1.303c2.418,5.708,2.293,11.303,2.286,11.538
		C176.589,212.112,176.507,212.191,176.408,212.191z"/>
	<path style="fill:#F3AE91;" d="M167.319,201.262c0.601-0.123,1.249,0.027,1.745,0.463c2.397,2.109,3.675,4.362,3.799,6.697
		c0.145,2.721-1.368,4.453-1.541,4.641l-2.984-2.739l-0.029,0.032c0.313-0.375,1.694-2.41-1.921-5.591
		c-0.84-0.739-0.922-2.019-0.183-2.858C166.508,201.564,166.902,201.348,167.319,201.262z"/>
	<path style="fill:#261718;" d="M172.248,211.799c-0.026,0-0.052-0.005-0.077-0.017c-0.092-0.043-0.132-0.152-0.09-0.244
		c0.454-0.98,0.655-2.024,0.598-3.105c-0.121-2.283-1.379-4.493-3.737-6.569c-0.437-0.385-1.016-0.537-1.586-0.421
		c-0.099,0.02-0.197-0.044-0.217-0.143c-0.02-0.1,0.044-0.197,0.144-0.217c0.685-0.14,1.379,0.044,1.903,0.505
		c2.436,2.144,3.735,4.44,3.862,6.826c0.061,1.141-0.152,2.244-0.631,3.279C172.385,211.759,172.318,211.799,172.248,211.799z"/>
	<path style="fill:#F3AE91;" d="M164.742,203.024c0.556-0.114,1.157,0.006,1.643,0.38c2.053,1.582,3.031,3.312,2.908,5.142
		c-0.194,2.865-6.463,2.853-6.2,2.555c1.475-1.659,2.147-2.663,2.159-2.828c0.018-0.276-0.321-0.876-1.339-1.66
		c-0.886-0.683-1.051-1.954-0.368-2.84C163.853,203.371,164.282,203.118,164.742,203.024z M166.081,212.005c0-0.001,0-0.002,0-0.003
		C166.081,212.003,166.082,212.004,166.081,212.005z M166.082,212.008c0-0.001,0-0.001,0-0.002
		C166.081,212.006,166.081,212.007,166.082,212.008z M166.081,212.01c0-0.001,0-0.001,0-0.002
		C166.081,212.009,166.081,212.01,166.081,212.01z"/>
	<path style="fill:#261718;" d="M167.461,212.236c-0.049,0-0.098-0.019-0.134-0.058c-0.07-0.074-0.066-0.191,0.008-0.26
		c1.094-1.026,1.69-2.165,1.773-3.386c0.119-1.764-0.835-3.441-2.836-4.983c-0.08-0.062-0.095-0.178-0.033-0.258
		c0.062-0.081,0.177-0.096,0.258-0.033c2.105,1.622,3.107,3.405,2.979,5.3c-0.089,1.317-0.725,2.538-1.888,3.629
		C167.552,212.22,167.507,212.236,167.461,212.236z"/>
</g>
<g>
	<g>
		<polygon style="fill:#FFFFFF;" points="392.734,167.089 386.406,170.972 382.949,175.29 374.928,162.928 385.434,155.058 		"/>
		<path style="fill:#D22E37;" d="M413.236,162.456l-20.447,10.628l-9.335-17.687c0,0,24.08-15.624,33.981-15.154
			C416.077,147.17,413.236,162.456,413.236,162.456z"/>
		<g>
			<path style="fill:#DE966E;" d="M350.501,162.475c-0.067,0.159-0.122,0.319-0.168,0.479c-0.603,2.122,0.507,4.299,1.415,5.496
				c0.017,0.025,0.037,0.049,0.054,0.071c0.026,0.033,0.053,0.067,0.078,0.1c0.117,0.144,0.218,0.259,0.294,0.341
				c1.229,1.317,9.052,8.339,13.392,7.84c3.165-0.365,4.16,1.673,4.469,2.804c0.144,0.527,0.459,0.993,0.887,1.335
				c1.825,1.462,3.551,2.638,5.142,3.535c0.073,0.041,0.146,0.082,0.217,0.122c0.008,0.004,0.017,0.01,0.026,0.013
				c0.05,0.028,0.101,0.055,0.15,0.082c0.011,0.007,0.023,0.012,0.034,0.019c0.067,0.036,0.134,0.072,0.199,0.107
				c0.089,0.047,0.177,0.094,0.264,0.138c0.028,0.015,0.056,0.028,0.084,0.043c0.082,0.041,0.162,0.082,0.242,0.121
				c0.158,0.079,0.314,0.154,0.469,0.226c0.116,0.054,0.232,0.107,0.348,0.158c0.057,0.026,0.114,0.051,0.172,0.076
				c0.056,0.025,0.113,0.049,0.169,0.073c0.057,0.024,0.113,0.047,0.169,0.07c0.056,0.023,0.112,0.047,0.167,0.068
				c0.091,0.036,0.181,0.07,0.27,0.104c0.076,0.029,0.15,0.057,0.223,0.083c0.044,0.016,0.088,0.031,0.13,0.047
				c0.012,0.004,0.021,0.008,0.031,0.011c0.055,0.02,0.108,0.037,0.163,0.055c0.159,0.055,0.315,0.103,0.469,0.149
				c0.039,0.012,0.076,0.023,0.113,0.034c0.124,0.036,0.246,0.067,0.367,0.098c0.042,0.011,0.084,0.022,0.127,0.031
				c0.049,0.012,0.098,0.024,0.148,0.034c0.049,0.012,0.097,0.022,0.146,0.032c0.048,0.011,0.096,0.021,0.144,0.029
				c0.038,0.008,0.075,0.015,0.11,0.021c0.154,0.029,0.304,0.053,0.452,0.072c0.057,0.008,0.114,0.015,0.171,0.021
				c0.062,0.007,0.125,0.014,0.187,0.018c0.088,0.009,0.174,0.014,0.261,0.019c0.073,0.005,0.144,0.007,0.216,0.008
				c0.065,0.002,0.132,0.002,0.196,0.001c0.053,0,0.105-0.001,0.156-0.004c0.033,0,0.066-0.002,0.099-0.004
				c0.199-0.011,0.392-0.032,0.576-0.064c0.049-0.009,0.098-0.018,0.146-0.028c0.067-0.014,0.133-0.029,0.197-0.046
				c-0.145-1.293,0.11-2.644,0.814-3.857c0.472-0.813,1.098-1.48,1.819-1.986c0.006-0.005,0.013-0.01,0.021-0.015
				c2.706-3.37,2.035-10.254,2.035-10.254c0.507-2.122-2.351-2.09-5.716-1.81c-3.366,0.281-4.225-4.69-4.225-4.69
				s-0.792-3.422-5.855-1.468c-4.074,1.572-15.066-0.603-19.209-1.514c-0.373-0.083-0.749-0.083-1.107-0.012
				c-0.517,0.098-0.996,0.346-1.371,0.715C350.836,161.859,350.638,162.145,350.501,162.475z"/>
			<path style="fill:#F4E0C7;" d="M350.501,162.475c-0.067,0.159-0.122,0.319-0.168,0.479c-0.603,2.122,0.507,4.299,1.415,5.496
				c0.017,0.025,0.037,0.049,0.054,0.071c0.026,0.033,0.053,0.067,0.078,0.1c0.117,0.144,0.218,0.259,0.294,0.341
				c1.229,1.317,9.052,8.339,13.392,7.84c3.165-0.365,4.16,1.673,4.469,2.804c0.144,0.527,0.459,0.993,0.887,1.335
				c1.825,1.462,3.551,2.638,5.142,3.535c0.073,0.041,0.146,0.082,0.217,0.122c0.008,0.004,0.017,0.01,0.026,0.013
				c0.05,0.028,0.101,0.055,0.15,0.082c0.011,0.007,0.023,0.012,0.034,0.019c0.067,0.036,0.134,0.072,0.199,0.107
				c0.089,0.047,0.177,0.094,0.264,0.138c0.028,0.015,0.056,0.028,0.084,0.043c0.082,0.041,0.162,0.082,0.242,0.121
				c0.158,0.079,0.314,0.154,0.469,0.226c0.116,0.054,0.232,0.107,0.348,0.158c0.057,0.026,0.114,0.051,0.172,0.076
				c0.056,0.025,0.113,0.049,0.169,0.073c0.057,0.024,0.113,0.047,0.169,0.07c0.056,0.023,0.112,0.047,0.167,0.068
				c0.091,0.036,0.181,0.07,0.27,0.104c0.076,0.029,0.15,0.057,0.223,0.083c0.044,0.016,0.088,0.031,0.13,0.047
				c0.012,0.004,0.021,0.008,0.031,0.011c0.055,0.02,0.108,0.037,0.163,0.055c0.159,0.055,0.315,0.103,0.469,0.149
				c0.039,0.012,0.076,0.023,0.113,0.034c0.124,0.036,0.246,0.067,0.367,0.098c0.042,0.011,0.084,0.022,0.127,0.031
				c0.049,0.012,0.098,0.024,0.148,0.034c0.049,0.012,0.097,0.022,0.146,0.032c0.048,0.011,0.096,0.021,0.144,0.029
				c0.038,0.008,0.075,0.015,0.11,0.021c0.154,0.029,0.304,0.053,0.452,0.072c0.057,0.008,0.114,0.015,0.171,0.021
				c0.062,0.007,0.125,0.014,0.187,0.018c0.088,0.009,0.174,0.014,0.261,0.019c0.073,0.005,0.144,0.007,0.216,0.008
				c0.065,0.002,0.132,0.002,0.196,0.001c0.053,0,0.105-0.001,0.156-0.004c0.033,0,0.066-0.002,0.099-0.004
				c0.199-0.011,0.392-0.032,0.576-0.064c0.049-0.009,0.098-0.018,0.146-0.028c0.067-0.014,0.133-0.029,0.197-0.046
				c-0.145-1.293,0.11-2.644,0.814-3.857c0.472-0.813,1.098-1.48,1.819-1.986c-2.155-3.774-12.044-5.497-12.044-5.497
				c-1.334-0.65-2.43-3.276-6.264-3.692c-3.834-0.416-5.915-4.367-12.19-6.428c-6.162-2.023-3.651-4.072-3.558-4.145
				c-0.517,0.098-0.996,0.346-1.371,0.715C350.836,161.859,350.638,162.145,350.501,162.475z"/>
			<path style="fill:#F4E0C7;" d="M372.425,162.775l-0.15,0.021c-0.1-0.12-2.433-2.97-1.943-4.652
				c0.144-0.495,0.508-0.84,1.083-1.026c0.54-0.175,0.97-0.113,1.277,0.185c1.119,1.084,0.03,4.986-0.098,5.427L372.425,162.775z
				 M371.964,157.389c-0.128,0-0.273,0.026-0.435,0.079c-0.458,0.148-0.733,0.403-0.843,0.779c-0.353,1.213,1.082,3.276,1.65,4.029
				c0.344-1.331,0.84-3.991,0.099-4.708C372.313,157.449,372.157,157.389,371.964,157.389z"/>
			<path style="fill:#F4E0C7;" d="M369.684,163.119c-0.87,0-1.736-0.141-2.252-0.599c-0.385-0.342-0.54-0.82-0.462-1.418
				c0.074-0.563,0.314-0.924,0.715-1.074c1.461-0.548,4.516,2.112,4.86,2.417l-0.034,0.16l-0.043,0.156
				C372.377,162.785,371.025,163.119,369.684,163.119z M368.135,160.321c-0.117,0-0.225,0.016-0.321,0.053
				c-0.267,0.1-0.423,0.354-0.479,0.777c-0.063,0.477,0.049,0.835,0.341,1.095c0.943,0.839,3.423,0.428,4.348,0.238
				C371.074,161.689,369.203,160.321,368.135,160.321z"/>
		</g>
	</g>
	<g>
		<polygon style="fill:#FFFFFF;" points="425.156,178.555 424.524,185.529 424.586,190.634 411.047,188.786 410.911,176.689 		"/>
		<g>
			<path style="fill:#DE966E;" d="M388.168,196.561c0.017,0.171,0.044,0.338,0.08,0.501c0.478,2.154,2.49,3.541,3.858,4.162
				c0.027,0.014,0.055,0.025,0.081,0.037c0.039,0.017,0.079,0.034,0.116,0.05c0.172,0.071,0.315,0.125,0.421,0.161
				c1.707,0.575,11.929,3.031,15.509,0.529c2.61-1.826,4.455-0.507,5.265,0.342c0.377,0.395,0.876,0.655,1.414,0.753
				c2.301,0.418,4.378,0.632,6.204,0.665c0.084,0.001,0.167,0.003,0.249,0.004c0.009,0,0.02,0.001,0.029-0.001
				c0.058,0.001,0.115,0.001,0.171,0.001c0.013,0,0.026-0.001,0.039,0c0.076,0,0.152-0.001,0.226-0.001
				c0.101-0.001,0.2-0.002,0.298-0.004c0.031,0,0.063-0.002,0.094-0.002c0.091-0.002,0.182-0.005,0.271-0.009
				c0.176-0.005,0.349-0.014,0.52-0.025c0.128-0.008,0.255-0.016,0.381-0.026c0.063-0.005,0.124-0.009,0.187-0.015
				c0.061-0.005,0.123-0.011,0.183-0.017c0.061-0.006,0.122-0.012,0.182-0.019c0.06-0.006,0.12-0.012,0.179-0.019
				c0.097-0.011,0.193-0.024,0.287-0.037c0.08-0.011,0.159-0.021,0.236-0.033c0.046-0.006,0.092-0.014,0.136-0.021
				c0.012-0.002,0.022-0.003,0.033-0.006c0.058-0.009,0.113-0.019,0.169-0.029c0.165-0.028,0.326-0.059,0.483-0.092
				c0.039-0.008,0.078-0.016,0.116-0.024c0.126-0.027,0.249-0.058,0.37-0.088c0.042-0.01,0.084-0.021,0.126-0.033
				c0.049-0.013,0.097-0.026,0.146-0.04c0.049-0.013,0.096-0.027,0.143-0.041c0.047-0.013,0.095-0.027,0.141-0.043
				c0.037-0.011,0.073-0.023,0.107-0.033c0.149-0.048,0.293-0.098,0.432-0.151c0.054-0.021,0.107-0.041,0.16-0.063
				c0.058-0.023,0.116-0.047,0.173-0.073c0.082-0.034,0.16-0.071,0.238-0.108c0.066-0.031,0.13-0.063,0.194-0.096
				c0.058-0.029,0.117-0.06,0.173-0.093c0.046-0.025,0.092-0.051,0.136-0.078c0.029-0.016,0.057-0.033,0.085-0.051
				c0.17-0.104,0.329-0.215,0.476-0.33c0.039-0.031,0.078-0.063,0.115-0.094c0.052-0.044,0.103-0.088,0.152-0.134
				c-0.743-1.069-1.161-2.378-1.118-3.78c0.029-0.939,0.262-1.824,0.656-2.612c0.003-0.008,0.007-0.015,0.011-0.023
				c0.778-4.251-3.086-9.988-3.086-9.988c-0.563-2.108-3.062-0.721-5.889,1.126c-2.828,1.848-5.947-2.117-5.947-2.117
				s-2.324-2.633-5.849,1.493c-2.836,3.32-13.541,6.634-17.618,7.802c-0.368,0.105-0.698,0.283-0.98,0.516
				c-0.408,0.332-0.712,0.779-0.866,1.281C388.17,195.86,388.132,196.206,388.168,196.561z"/>
			<path style="fill:#F4E0C7;" d="M388.168,196.561c0.017,0.171,0.044,0.338,0.08,0.501c0.478,2.154,2.49,3.541,3.858,4.162
				c0.027,0.014,0.055,0.025,0.081,0.037c0.039,0.017,0.079,0.034,0.116,0.05c0.172,0.071,0.315,0.125,0.421,0.161
				c1.707,0.575,11.929,3.031,15.509,0.529c2.61-1.826,4.455-0.507,5.265,0.342c0.377,0.395,0.876,0.655,1.414,0.753
				c2.301,0.418,4.378,0.632,6.204,0.665c0.084,0.001,0.167,0.003,0.249,0.004c0.009,0,0.02,0.001,0.029-0.001
				c0.058,0.001,0.115,0.001,0.171,0.001c0.013,0,0.026-0.001,0.039,0c0.076,0,0.152-0.001,0.226-0.001
				c0.101-0.001,0.2-0.002,0.298-0.004c0.031,0,0.063-0.002,0.094-0.002c0.091-0.002,0.182-0.005,0.271-0.009
				c0.176-0.005,0.349-0.014,0.52-0.025c0.128-0.008,0.255-0.016,0.381-0.026c0.063-0.005,0.124-0.009,0.187-0.015
				c0.061-0.005,0.123-0.011,0.183-0.017c0.061-0.006,0.122-0.012,0.182-0.019c0.06-0.006,0.12-0.012,0.179-0.019
				c0.097-0.011,0.193-0.024,0.287-0.037c0.08-0.011,0.159-0.021,0.236-0.033c0.046-0.006,0.092-0.014,0.136-0.021
				c0.012-0.002,0.022-0.003,0.033-0.006c0.058-0.009,0.113-0.019,0.169-0.029c0.165-0.028,0.326-0.059,0.483-0.092
				c0.039-0.008,0.078-0.016,0.116-0.024c0.126-0.027,0.249-0.058,0.37-0.088c0.042-0.01,0.084-0.021,0.126-0.033
				c0.049-0.013,0.097-0.026,0.146-0.04c0.049-0.013,0.096-0.027,0.143-0.041c0.047-0.013,0.095-0.027,0.141-0.043
				c0.037-0.011,0.073-0.023,0.107-0.033c0.149-0.048,0.293-0.098,0.432-0.151c0.054-0.021,0.107-0.041,0.16-0.063
				c0.058-0.023,0.116-0.047,0.173-0.073c0.082-0.034,0.16-0.071,0.238-0.108c0.066-0.031,0.13-0.063,0.194-0.096
				c0.058-0.029,0.117-0.06,0.173-0.093c0.046-0.025,0.092-0.051,0.136-0.078c0.029-0.016,0.057-0.033,0.085-0.051
				c0.17-0.104,0.329-0.215,0.476-0.33c0.039-0.031,0.078-0.063,0.115-0.094c0.052-0.044,0.103-0.088,0.152-0.134
				c-0.743-1.069-1.161-2.378-1.118-3.78c0.029-0.939,0.262-1.824,0.656-2.612c-3.69-2.295-13.209,0.891-13.209,0.891
				c-1.483,0.063-3.696-1.726-7.266-0.269c-3.57,1.457-7.28-1.029-13.78,0.142c-6.383,1.15-5.148-1.846-5.102-1.955
				c-0.408,0.332-0.712,0.779-0.866,1.281C388.17,195.86,388.132,196.206,388.168,196.561z"/>
			<path style="fill:#F4E0C7;" d="M407.284,186.869l-0.133,0.097c-0.141-0.068-3.454-1.677-3.714-3.41
				c-0.076-0.509,0.11-0.975,0.553-1.385c0.417-0.385,0.833-0.509,1.237-0.367c1.47,0.515,2.116,4.514,2.185,4.969L407.284,186.869z
				 M404.903,182.116c-0.208,0-0.427,0.107-0.662,0.325c-0.353,0.327-0.497,0.673-0.439,1.06c0.187,1.25,2.355,2.521,3.187,2.967
				c-0.246-1.353-0.91-3.976-1.883-4.317C405.04,182.128,404.972,182.116,404.903,182.116z"/>
			<path style="fill:#F4E0C7;" d="M403.124,188.837c-0.186,0-0.364-0.023-0.531-0.073c-0.493-0.15-0.834-0.518-1.014-1.094
				c-0.169-0.542-0.102-0.971,0.199-1.275c1.097-1.107,4.986,0.025,5.426,0.158l0.026,0.141l0.037,0.179
				C407.157,186.961,404.813,188.837,403.124,188.837z M403.461,186.286c-0.627,0-1.154,0.099-1.421,0.369
				c-0.201,0.202-0.236,0.499-0.109,0.906c0.143,0.459,0.395,0.738,0.769,0.852c1.206,0.366,3.288-1.046,4.047-1.606
				C405.908,186.579,404.538,186.286,403.461,186.286z"/>
		</g>
		<path style="fill:#D22E37;" d="M407.032,178.845l19.919,1.778l2.205-22.813c0,0,34.298,3.533,41.451-2.791
			c1.435-1.269,3.203-3.44,3.848-7.541c0.671-4.271-1.876-11.508-2.122-12.267c0,0-0.577-6.112-0.612-6.179
			c-1.105-2.064-16.392,2.04-26.142,2.393c-0.652,0.022-0.547,4.874-1.228,4.908c-7.548,0.353-17.997-0.681-29.075,2.452
			C404.955,141.704,407.032,178.845,407.032,178.845z"/>
		<path style="fill:#261718;" d="M407.032,179.029c-0.097,0-0.178-0.076-0.184-0.174c-0.085-1.523-1.966-37.321,8.377-40.247
			c0.098-0.028,0.2,0.029,0.227,0.127c0.028,0.098-0.03,0.199-0.127,0.227c-10.062,2.846-8.13,39.502-8.11,39.872
			c0.006,0.101-0.072,0.188-0.173,0.194C407.039,179.029,407.036,179.029,407.032,179.029z"/>
	</g>
	<path style="fill:#60322B;" d="M475.508,135.199c0,0,2.012,7.732-0.749,9.113c-3.4,1.7-22.431-1.967-31.512-7.979
		C434.165,130.321,475.508,135.199,475.508,135.199z"/>
	<g>
		<path style="fill:#E29C83;" d="M399.179,71.137c-0.917,1.545-1.975,3.035-2.934,4.576c-0.325,1.571-0.412,3.068-0.014,4.556
			c-2.707,0.16-5.07,0.53-5.535,1.311c-1.658,2.781,4.71,4.147,4.71,4.147l8.234,2.729l2.688-11.636
			C406.328,76.819,402.188,72.595,399.179,71.137z"/>
		<g>
			<g>
				<polygon style="fill:#D22E37;" points="389.781,38.915 324.218,48.333 334.178,59.341 326.619,72.603 393.175,63.045 				"/>
			</g>
			<path style="fill:#261718;" d="M397.566,96.071c-0.362,0-0.677-0.267-0.729-0.636l-7.817-56.717
				c-0.055-0.403,0.226-0.775,0.629-0.83c0.403-0.055,0.775,0.226,0.83,0.629l7.817,56.717c0.055,0.403-0.226,0.775-0.629,0.83
				C397.634,96.068,397.6,96.071,397.566,96.071z"/>
		</g>
		<path style="fill:#E29C83;" d="M397.651,70.655c-2.002-0.157-7.627,1.612-7.627,1.612c-1.016,0.255-1.634,1.286-1.378,2.302
			c0.158,0.629,0.972,1.094,1.559,1.234c2.072,0.493,6.064-0.211,6.064-0.211c-0.009,0.04-0.015,0.08-0.023,0.12
			c0.958-1.541,2.017-3.031,2.934-4.576C398.62,70.866,398.099,70.69,397.651,70.655z"/>
		<path style="fill:#E29C83;" d="M389.486,77.833c0.285,0.32,0.688,0.536,1.149,0.576l5.906,0.51c0.957,0.083,1.8-0.626,1.883-1.583
			c0.083-0.957-0.626-1.8-1.583-1.882l-5.906-0.51c-0.957-0.083-1.8,0.626-1.882,1.583
			C389.009,77.023,389.179,77.489,389.486,77.833z"/>
		<path style="fill:#E29C83;" d="M390.406,81.097c0.331,0.216,0.736,0.321,1.159,0.27l5.126-0.618
			c0.954-0.115,1.634-0.982,1.519-1.935c-0.115-0.954-0.982-1.634-1.935-1.519l-5.126,0.618c-0.954,0.115-1.634,0.982-1.518,1.935
			C389.694,80.38,389.991,80.826,390.406,81.097z"/>
		<path style="fill:#261718;" d="M395.862,79.044c-0.005,0-0.011,0-0.016-0.001l-5.226-0.451c-0.492-0.042-0.943-0.268-1.271-0.637
			c-0.068-0.076-0.061-0.192,0.015-0.26c0.076-0.068,0.192-0.061,0.26,0.015c0.265,0.298,0.63,0.481,1.028,0.515l5.226,0.451
			c0.101,0.009,0.176,0.098,0.168,0.199C396.037,78.972,395.956,79.044,395.862,79.044z"/>
		<path style="fill:#E29C83;" d="M391.213,83.878c0.271,0.177,0.595,0.281,0.943,0.282l3.77,0.152
			c0.961,0.004,1.742-0.772,1.746-1.733c0.004-0.96-0.772-1.742-1.732-1.746l-3.77-0.152c-0.961-0.004-1.742,0.772-1.746,1.733
			C390.421,83.026,390.736,83.566,391.213,83.878z"/>
		<path style="fill:#261718;" d="M395.933,84.496c-0.002,0-0.005,0-0.007,0l-3.777-0.152c-0.365-0.002-0.726-0.109-1.036-0.312
			c-0.085-0.055-0.109-0.169-0.054-0.255c0.056-0.086,0.171-0.109,0.255-0.053c0.251,0.164,0.542,0.251,0.843,0.252l3.777,0.153
			c0.002,0,0.004,0,0.005,0c0.645,0,1.232-0.41,1.455-1.022c0.035-0.095,0.14-0.144,0.236-0.11c0.095,0.035,0.145,0.141,0.11,0.236
			C397.464,83.989,396.738,84.496,395.933,84.496z"/>
		<path style="fill:#261718;" d="M391.357,81.564c-0.372,0-0.738-0.108-1.052-0.313c-0.085-0.056-0.109-0.17-0.054-0.255
			c0.056-0.085,0.171-0.108,0.255-0.053c0.305,0.199,0.672,0.286,1.036,0.242l4.764-0.575c0.098-0.012,0.192,0.06,0.205,0.161
			c0.012,0.101-0.06,0.193-0.161,0.205l-4.764,0.575C391.51,81.559,391.434,81.564,391.357,81.564z"/>
		<path style="fill:#261718;" d="M400.052,85.78c-0.041,0-0.083-0.014-0.118-0.042c-4.371-3.62-4.503-6.905-3.901-9.92
			c-0.937,0.149-4.075,0.592-5.872,0.164c-0.099-0.023-0.16-0.123-0.137-0.222c0.023-0.099,0.124-0.16,0.221-0.136
			c2.011,0.478,5.95-0.206,5.99-0.213l0.269-0.047l-0.057,0.267c-0.637,2.974-0.627,6.222,3.721,9.823
			c0.078,0.065,0.089,0.181,0.024,0.259C400.158,85.757,400.105,85.78,400.052,85.78z"/>
		<g>
			<path style="fill:#FFFFFF;" d="M340.313,52.261l1.827-0.247l3.905,8.248l1.531-8.982l1.812-0.245l1.6,11.849l-1.891,0.255
				l-0.74-5.483l-0.961,5.713l-1.828,0.247l-2.512-5.293l0.747,5.531l-1.891,0.255L340.313,52.261z"/>
			<path style="fill:#FFFFFF;" d="M354.402,56.663l-4.145-5.745l2.158-0.292l2.636,3.719l1.587-4.29l2.111-0.285l-2.459,6.62
				l0.766,5.673l-1.891,0.255L354.402,56.663z"/>
			<path style="fill:#FFFFFF;" d="M362.142,51.704l-2.867,0.387l-0.317-2.347l7.642-1.032l0.317,2.347l-2.884,0.389l1.283,9.502
				l-1.891,0.255L362.142,51.704z"/>
			<path style="fill:#FFFFFF;" d="M367.515,48.589l1.891-0.255l0.625,4.632l3.656-0.494l-0.626-4.632l1.892-0.255l1.6,11.849
				l-1.892,0.255l-0.659-4.885l-3.655,0.494l0.659,4.885l-1.891,0.255L367.515,48.589z"/>
			<path style="fill:#FFFFFF;" d="M377.501,55.872l1.787-0.787c0.412,1.277,1.105,1.777,2.208,1.628
				c1.041-0.141,1.693-0.774,1.595-1.5c-0.091-0.677-0.808-1.11-2.331-1.466c-2.397-0.526-3.635-1.61-3.877-3.407
				c-0.27-2,0.9-3.426,3.091-3.722c2.001-0.27,3.293,0.63,4.056,2.71l-1.913,0.803c-0.382-0.927-0.959-1.282-1.935-1.15
				c-0.898,0.121-1.419,0.544-1.334,1.175c0.076,0.566,0.585,0.884,2.228,1.287c2.44,0.601,3.701,1.747,3.948,3.575
				c0.285,2.11-0.96,3.706-3.15,4.002C379.714,59.311,378.152,58.206,377.501,55.872z"/>
		</g>
		<path style="fill:#60322B;" d="M451.928,112.116l1.663-16.935L428.617,90.4c0,0-12.839-10.061-17.285-13.479
			c-1.801-1.385-4.785-1.538-5.725,0.175l-5.17,9.422c-1.203,2.141-0.554,4.085,1.764,5.695c5.337,3.708,16.295,10.11,20.816,12.192
			C433.494,109.23,451.928,112.116,451.928,112.116z"/>
	</g>
	<path style="fill:#F3D0BD;" d="M438.119,76.861c0,0-7.112,1.671-8.453,7.622c-1.341,5.951,2.342,4.339,4.283,5.846
		c1.941,1.507-2.919,5.108,0.99,7.339c1.784,1.018,5.173,0.164,8.33-1.065c3.801-1.48,5.116-6.198,2.653-9.449L438.119,76.861z"/>
	<path style="fill:#60322B;" d="M440.352,98.21c0,0-1.159,5.067-2.011,11.359c-0.371,2.742,2.488,6.17,3.157,9.343
		c1.45,6.879-4.295,15.92,1.749,17.422c6.742,1.676,20.373,3.96,28.389,2.337c2.879-0.583,5.034-1.67,5.885-3.471
		c2.393-5.063-8.269-36.837-23.375-42.939L440.352,98.21z"/>
	<path style="fill:#F4E0C7;" d="M441.497,119.095c-0.085,0-0.161-0.06-0.18-0.146c-0.274-1.299-0.932-2.664-1.568-3.985
		c-0.933-1.936-1.815-3.765-1.591-5.421c0.233-1.723,0.513-3.522,0.831-5.349c0.017-0.101,0.114-0.167,0.213-0.15
		c0.1,0.017,0.167,0.113,0.15,0.213c-0.317,1.822-0.596,3.617-0.828,5.335c-0.209,1.546,0.649,3.327,1.558,5.212
		c0.646,1.34,1.314,2.726,1.597,4.068c0.021,0.099-0.043,0.197-0.142,0.218C441.523,119.094,441.51,119.095,441.497,119.095z"/>
	<g>
		<path style="fill:#E29C83;" d="M434.576,84.594c-0.033,0.36-0.045,0.715-0.041,1.064c0.047,3.387,1.826,6.187,4.877,6.552
			c0.262,0.034,0.533,0.048,0.813,0.044c3.884-0.072,7.951-3.508,7.873-7.647c-0.078-4.143-3.288-7.442-7.173-7.366
			C437.041,77.313,435.079,78.935,434.576,84.594z"/>
		<g>
			<path style="fill:#FFFFFF;" d="M438.355,88.516c0.737-0.176,1.23-0.754,1.057-1.289l-0.746,0.066
				c-0.66,0.059-1.311,0.257-1.878,0.571l0,0C436.917,88.401,437.618,88.692,438.355,88.516z"/>
			<path style="fill:#AA5643;" d="M437.932,88.751c-0.648,0-1.199-0.33-1.322-0.844l-0.032-0.136l0.122-0.068
				c0.59-0.327,1.265-0.533,1.951-0.594l0.892-0.079l0.045,0.14c0.081,0.251,0.049,0.515-0.091,0.765
				c-0.202,0.359-0.613,0.644-1.099,0.76l0,0C438.24,88.733,438.083,88.751,437.932,88.751z M437.016,87.952
				c0.183,0.351,0.726,0.522,1.296,0.385c0.388-0.093,0.711-0.31,0.863-0.582c0.046-0.082,0.092-0.197,0.087-0.33l-0.579,0.051
				C438.1,87.528,437.528,87.692,437.016,87.952z"/>
		</g>
		<path style="fill:#F3D0BD;" d="M438.718,82.192c-0.017,0.36,2.89,0.536,2.906,0.177c0.017-0.36-1.105-0.813-1.908-0.862
			C438.914,81.457,438.735,81.832,438.718,82.192z"/>
		<path style="fill:#FFFFFF;" d="M439.089,83.886c0,0.163,0.145,0.311,0.369,0.406c0.052,0.022,0.108,0.043,0.166,0.059
			c0.163,0.046,0.354,0.074,0.557,0.071c0.043-0.003,0.089-0.006,0.132-0.009c0.148-0.006,0.286-0.04,0.409-0.077
			c0.323-0.105,0.538-0.286,0.532-0.492c-0.006-0.209-0.24-0.394-0.584-0.477c-0.095-0.025-0.2-0.046-0.308-0.055
			c-0.025-0.003-0.046-0.006-0.071-0.006c-0.046,0-0.089,0.003-0.132,0.003c-0.074,0.003-0.148,0.006-0.218,0.018
			c-0.181,0.019-0.348,0.065-0.483,0.129C439.23,83.563,439.085,83.72,439.089,83.886z"/>
		<path style="fill:#261718;" d="M439.089,83.886c0,0.163,0.145,0.311,0.369,0.406c0.052,0.022,0.108,0.043,0.166,0.059
			c0.163,0.046,0.354,0.074,0.557,0.071c0.043-0.003,0.089-0.006,0.132-0.009c0.157-0.142,0.255-0.348,0.255-0.575
			c0-0.203-0.077-0.388-0.206-0.526c-0.025-0.003-0.046-0.006-0.071-0.006c-0.046,0-0.089,0.003-0.132,0.003
			c-0.074,0.003-0.148,0.006-0.218,0.018c-0.181,0.019-0.348,0.065-0.483,0.129C439.23,83.563,439.085,83.72,439.089,83.886z"/>
		<polygon style="fill:#E29C83;" points="447.13,87.371 440.199,91.305 441.555,94.02 448.43,90.292 		"/>
		<path style="fill:#261718;" d="M441.79,92.225c-0.216,0.057-0.437,0.103-0.664,0.136c-0.099,0.014-0.191-0.054-0.205-0.153
			c-0.014-0.099,0.054-0.189,0.153-0.205c2.476-0.354,4.25-2.356,5.303-3.969c0.054-0.084,0.166-0.107,0.25-0.053
			c0.083,0.054,0.107,0.167,0.052,0.25C445.68,89.761,444.05,91.626,441.79,92.225z"/>
		<path style="fill:#F3D0BD;" d="M437.329,82.221c0.044,0.358-2.225,0.627-2.27,0.27c-0.044-0.358,0.798-0.846,1.425-0.921
			C437.111,81.496,437.285,81.863,437.329,82.221z"/>
		<path style="fill:#FFFFFF;" d="M435.284,83.975c0.003,0.157,0.132,0.301,0.338,0.397c0.071,0.037,0.148,0.062,0.231,0.08
			c0.145,0.043,0.311,0.062,0.486,0.058c0.046,0,0.089,0,0.132-0.006c0.012,0,0.025-0.003,0.037-0.003
			c0.157-0.018,0.305-0.052,0.427-0.105c0.271-0.102,0.443-0.274,0.44-0.461c-0.003-0.206-0.218-0.378-0.532-0.471
			c-0.102-0.031-0.218-0.049-0.338-0.058c-0.019,0-0.04-0.003-0.062-0.003c-0.04-0.006-0.08,0-0.126-0.006
			c-0.055,0-0.111,0.009-0.163,0.015c-0.181,0.016-0.345,0.059-0.48,0.117C435.435,83.64,435.284,83.797,435.284,83.975z"/>
		<path style="fill:#F3D0BD;" d="M446.572,75.591c-1.922-0.45-3.858-0.417-5.573,0.066c-1.267,0.278-2.618,0.922-4.034,2.028
			c-0.188,0.146-0.31,0.467-0.34,0.871c-0.077,1.188,0.687,3.092,3.228,3.343c3.843,0.379,4.253,2.016,3.644,3.737
			c-0.032,0.084-0.06,0.169-0.087,0.258c-0.029,0.085-0.055,0.171-0.081,0.256l-0.002,0.009c-0.561,1.906-0.377,5.032,1.059,5.997
			c0.593,0.398,3.491,1.562,5.569,1.064c2.507-0.6,4.963-3.009,5.211-5.575c0.057-0.594,0.015-1.184-0.156-1.736
			C453.557,81.21,451.584,76.764,446.572,75.591z"/>
		<path style="fill:#E29C83;" d="M448.008,85.375c-0.021-1.117-0.858-2.025-1.932-2.171c0.41,1.454-0.159,2.841,0.468,4.31
			C447.413,87.195,448.027,86.354,448.008,85.375z"/>
		<path style="fill:#261718;" d="M436.538,86.465c-0.047,0.012-0.099,0.006-0.144-0.022c-0.268-0.171-0.299-0.355-0.277-0.478
			c0.074-0.429,0.946-0.707,1.444-0.833l-0.031-1.639c-0.002-0.1,0.079-0.181,0.177-0.184c0.1-0.002,0.182,0.077,0.184,0.177
			l0.034,1.784c0.002,0.086-0.05,0.161-0.14,0.18c-0.66,0.153-1.286,0.426-1.312,0.577c-0.001,0.006,0.015,0.048,0.116,0.112
			c0.084,0.054,0.109,0.165,0.055,0.249C436.618,86.427,436.58,86.453,436.538,86.465z"/>
		<path style="fill:#261718;" d="M442.92,83.832c-0.009,0.002-0.019,0.004-0.029,0.005l-0.868,0.084
			c-0.099,0.01-0.188-0.063-0.197-0.162c-0.01-0.099,0.061-0.189,0.163-0.197l0.868-0.084c0.099-0.01,0.188,0.063,0.197,0.162
			C443.062,83.729,443.004,83.809,442.92,83.832z"/>
		<path style="fill:#261718;" d="M443.104,84.608c-0.026,0.007-0.054,0.008-0.082,0.002l-1.224-0.248
			c-0.098-0.02-0.161-0.115-0.141-0.213c0.02-0.098,0.115-0.161,0.213-0.141l1.224,0.248c0.098,0.02,0.161,0.115,0.141,0.213
			C443.22,84.538,443.168,84.591,443.104,84.608z"/>
		<path style="fill:#261718;" d="M435.284,83.975c0.003,0.157,0.132,0.301,0.338,0.397c0.071,0.037,0.148,0.062,0.231,0.08
			c0.145,0.043,0.311,0.062,0.486,0.058c0.046,0,0.089,0,0.132-0.006c0.012,0,0.025-0.003,0.037-0.003
			c0.138-0.141,0.221-0.332,0.221-0.544c0-0.215-0.086-0.409-0.224-0.55c-0.019,0-0.04-0.003-0.062-0.003
			c-0.04-0.006-0.08,0-0.126-0.006c-0.055,0-0.111,0.009-0.163,0.015c-0.181,0.016-0.345,0.059-0.48,0.117
			C435.435,83.64,435.284,83.797,435.284,83.975z"/>
		<path style="fill:#AA5643;" d="M442.894,85.833c0.046,0.516-0.55,0.991-1.332,1.062c-0.782,0.071-1.454-0.29-1.501-0.806
			c-0.047-0.516,0.55-0.991,1.332-1.062C442.175,84.956,442.847,85.317,442.894,85.833z"/>
		<path style="fill:#CEA593;" d="M443.497,85.82c-0.021,0-0.041-0.003-0.061-0.011c-0.096-0.034-0.146-0.139-0.112-0.235
			c0.308-0.869,0.293-1.552-0.047-2.086c-0.48-0.755-1.638-1.228-3.441-1.406c-2.643-0.261-3.478-2.259-3.394-3.538
			c0.007-0.102,0.105-0.176,0.196-0.172c0.102,0.007,0.178,0.094,0.172,0.196c-0.074,1.136,0.68,2.913,3.063,3.148
			c1.949,0.192,3.164,0.707,3.716,1.575c0.399,0.628,0.427,1.437,0.083,2.407C443.644,85.773,443.573,85.82,443.497,85.82z"/>
		<path style="fill:#CEA593;" d="M448.176,89.594c-0.021,0-0.043-0.004-0.065-0.012c-2.087-0.787-2.02-2.255-1.95-3.81
			c0.043-0.957,0.089-1.948-0.328-2.915c-0.576-1.338-2.179-1.413-3.876-1.493c-1.426-0.067-2.9-0.137-3.813-1.001
			c-0.074-0.07-0.077-0.187-0.007-0.26c0.07-0.074,0.186-0.077,0.26-0.007c0.813,0.77,2.218,0.836,3.577,0.9
			c1.736,0.082,3.53,0.166,4.197,1.715c0.45,1.045,0.401,2.125,0.358,3.077c-0.07,1.54-0.125,2.756,1.712,3.449
			c0.095,0.036,0.143,0.142,0.107,0.237C448.32,89.549,448.25,89.594,448.176,89.594z"/>
	</g>
	<path style="fill:#F4E0C7;" d="M465.009,139.414c-7.809,0-17.062-1.723-21.807-2.902c-0.099-0.025-0.159-0.124-0.135-0.223
		c0.025-0.098,0.124-0.159,0.223-0.134c6.187,1.538,20.066,4.004,28.308,2.335c3.055-0.618,4.991-1.752,5.756-3.369
		c0.044-0.092,0.154-0.131,0.245-0.088c0.092,0.044,0.131,0.153,0.088,0.245c-0.817,1.728-2.841,2.93-6.015,3.573
		C469.707,139.249,467.428,139.414,465.009,139.414z"/>
	<path style="fill:#60322B;" d="M440.352,98.21l-0.155-1.519c-0.124-1.211,0.476-2.382,1.537-2.979
		c2.334-1.313,6.924-3.399,13.131-3.853c3.408-0.249,6.644-0.242,9.369-0.135c5.002,0.197,8.5,5.032,7.084,9.834
		c-1.122,3.803-3.665,7.199-9.26,6.529C450.1,104.655,440.352,98.21,440.352,98.21z"/>
	<g>
		<path style="fill:#E29C83;" d="M415.876,127.526c3.549,1.268,8.166,1.228,13.98-1.914l-8.277-10.3c0,0-11.831,2.1-15.702,3.116
			c-1.739,0.456-3.967,1.525-5.532,3.623c-1.566,2.099-1.948,4.722-1.136,7.794c0.202,0.764,0.814,1.309,1.537,1.464
			c0.301,0.064,0.621,0.061,0.939-0.023c1.081-0.286,1.726-1.394,1.44-2.475c-0.486-1.84-0.336-3.256,0.46-4.329
			c0.261-0.352,0.589-0.656,0.954-0.925c-0.631,2.078-1.282,4.974-1.319,8.179c-0.011,0.98,0.677,1.806,1.6,2.003
			c0.13,0.028,0.264,0.043,0.402,0.045c1.118,0.013,2.035-0.883,2.048-2.002c0.007-0.627,0.044-1.241,0.101-1.839
			c0.21,0.88,0.526,1.793,0.97,2.744c0.279,0.598,0.814,0.995,1.413,1.123c0.416,0.089,0.863,0.048,1.279-0.146
			c0.408-0.191,0.717-0.503,0.917-0.871c0.255,0.214,0.552,0.367,0.872,0.435c0.459,0.098,0.953,0.038,1.397-0.206
			c0.98-0.538,1.338-1.77,0.8-2.75c-0.619-1.126-0.689-1.812-0.562-2.058C414.516,128.099,414.792,127.771,415.876,127.526z"/>
		<path style="fill:#261718;" d="M404.821,133.923c-0.013,0-0.026-0.001-0.039-0.004c-1.023-0.218-1.758-1.138-1.746-2.186
			c0.071-6.192,2.426-11.274,2.527-11.487c0.043-0.092,0.152-0.131,0.245-0.088c0.092,0.043,0.132,0.153,0.088,0.245
			c-0.099,0.21-2.421,5.222-2.491,11.335c-0.01,0.873,0.602,1.639,1.454,1.821c0.099,0.021,0.163,0.119,0.142,0.219
			C404.982,133.863,404.906,133.923,404.821,133.923z"/>
		<path style="fill:#261718;" d="M409.755,133.993c-0.013,0-0.026-0.001-0.039-0.004c-0.684-0.146-1.246-0.593-1.541-1.225
			c-1.373-2.94-1.644-5.564-0.805-7.801c0.401-1.07,1.037-1.996,1.892-2.752c0.076-0.067,0.192-0.06,0.26,0.016
			s0.06,0.192-0.016,0.26c-0.808,0.716-1.411,1.592-1.791,2.605c-0.803,2.141-0.536,4.669,0.794,7.516
			c0.246,0.527,0.715,0.899,1.285,1.021c0.099,0.021,0.163,0.119,0.142,0.218C409.916,133.934,409.839,133.993,409.755,133.993z"/>
		<path style="fill:#261718;" d="M411.468,132.406c-0.065,0-0.128-0.035-0.161-0.096c-1.279-2.329-1.483-4.364-0.607-6.049
			c0.609-1.171,1.68-2.035,3.184-2.569c0.094-0.034,0.201,0.016,0.235,0.112c0.034,0.096-0.016,0.201-0.112,0.235
			c-1.413,0.502-2.416,1.307-2.98,2.392c-0.816,1.57-0.613,3.488,0.603,5.702c0.049,0.089,0.016,0.201-0.073,0.25
			C411.529,132.398,411.499,132.406,411.468,132.406z"/>
		<path style="fill:#60322B;" d="M420.101,125.64l-1.131-9.618c-0.161-1.368,0.894-2.575,2.271-2.6l18.403-1.331l5.41-13.246
			c1.545-4.323,5.765-6.714,9.96-4.851l2.025,0.884c4.172,1.852,5.57,6.699,3.447,10.739l-8.605,18.855
			c-1.031,2.312-3.289,3.835-5.819,3.924l-19.43,2.212C423.475,130.968,420.596,128.777,420.101,125.64z"/>
		<path style="fill:#F4E0C7;" d="M437.755,112.413c-0.096,0-0.176-0.074-0.183-0.171c-0.007-0.101,0.069-0.19,0.17-0.197
			l1.775-0.128l5.367-13.14c0.038-0.094,0.146-0.14,0.24-0.101c0.094,0.039,0.139,0.146,0.101,0.24l-5.453,13.352l-2.003,0.145
			C437.764,112.413,437.76,112.413,437.755,112.413z"/>
		<path style="fill:#F4E0C7;" d="M439.272,129.353c-0.092,0-0.172-0.069-0.183-0.163c-0.012-0.101,0.061-0.192,0.162-0.204
			l6.788-0.773c2.456-0.087,4.677-1.585,5.672-3.816l8.606-18.856c0.042-0.093,0.152-0.132,0.244-0.091
			c0.092,0.042,0.133,0.152,0.091,0.244l-8.605,18.855c-1.051,2.357-3.399,3.94-5.98,4.032l-6.773,0.772
			C439.286,129.353,439.279,129.353,439.272,129.353z"/>
	</g>
	<path style="fill:#F4E0C7;" d="M468.699,107.095c-0.065,0-0.128-0.035-0.161-0.096c-1.636-2.987-3.463-5.629-5.43-7.852
		c-4.043-4.568-10.539-6.007-16.165-3.58c-0.093,0.04-0.202-0.003-0.242-0.096c-0.04-0.093,0.003-0.202,0.096-0.242
		c5.774-2.49,12.439-1.013,16.586,3.674c1.986,2.243,3.828,4.908,5.478,7.919c0.049,0.089,0.016,0.201-0.073,0.25
		C468.759,107.088,468.729,107.095,468.699,107.095z"/>
	<path style="fill:#B84739;" d="M437.336,101.376c-0.03,0-0.058-0.003-0.086-0.01c-0.419-0.098-0.47-0.723-0.472-1.184
		c-0.015-3.546,4.161-4.453,4.203-4.462c0.07-0.014,0.141,0.012,0.183,0.068c0.043,0.056,0.05,0.132,0.019,0.195
		C440.538,97.271,438.399,101.376,437.336,101.376z M440.665,96.188c-0.992,0.312-3.531,1.368-3.52,3.992
		c0.003,0.619,0.119,0.812,0.188,0.827C437.817,101.12,439.397,98.659,440.665,96.188z"/>
	<path style="fill:#B84739;" d="M440.998,97.134C440.998,97.134,440.998,97.134,440.998,97.134c0.199,0,0.371-0.048,0.472-0.12
		c0.115-0.082,0.129-0.192,0.105-0.268c-0.062-0.193-0.326-0.193-0.439-0.193c-0.073,0-0.181,0.022-0.284,0.129
		c-0.018,0.019-0.035,0.039-0.052,0.063c-0.11-0.024-0.228-0.072-0.339-0.154c-0.016-0.012-0.028-0.022-0.039-0.031
		c0.15-0.052,0.512-0.089,0.848-0.083c0.115-0.01,0.186-0.079,0.188-0.18c0.002-0.102-0.079-0.186-0.18-0.188
		c-0.749-0.016-1.167,0.098-1.249,0.337c-0.051,0.148,0.02,0.296,0.211,0.44c0.127,0.095,0.265,0.16,0.401,0.199
		c-0.257,0.786-0.286,2.308-0.279,3.196c-0.202,0.076-0.348,0.268-0.348,0.496v0.734c0,0.294,0.24,0.534,0.534,0.534
		c0.294,0,0.534-0.24,0.534-0.534v-0.734c0-0.23-0.148-0.422-0.352-0.497C440.72,98.867,440.829,97.621,440.998,97.134z
		 M440.548,101.674c-0.091,0-0.165-0.074-0.165-0.165v-0.62c0.015,0.087,0.084,0.156,0.174,0.156c0.002,0,0.004,0,0.006,0
		c0.074-0.002,0.124-0.054,0.151-0.119v0.583C440.714,101.6,440.64,101.674,440.548,101.674z"/>
</g>
</svg>
